<svg id="Layer_1" data-name="Layer 1" xmlns="http://www.w3.org/2000/svg" viewBox="0 0 100 100"><defs><style>.cls-1{fill:#231f20;}</style></defs><title>eye</title><path class="cls-1" d="M85.49,48.37A61.42,61.42,0,0,0,69,35.76L76,28.7a2.5,2.5,0,0,0-3.54-3.54l-8.41,8.42a37.47,37.47,0,0,0-10.9-2.42,18.06,18.06,0,0,0-4,0c-17.86,1.1-31.71,16.52-32.31,17.21a2.46,2.46,0,0,0,0,3.27,61.91,61.91,0,0,0,16.52,12.6l-7,7.06a2.5,2.5,0,0,0,1.76,4.27,2.53,2.53,0,0,0,1.77-.73l8.41-8.42a37.15,37.15,0,0,0,10.9,2.42,18.06,18.06,0,0,0,4,0C71,67.74,84.89,52.32,85.49,51.64A2.46,2.46,0,0,0,85.49,48.37Zm-50.77-7.7a18.79,18.79,0,0,0,0,18.66A59.7,59.7,0,0,1,22.19,50,60.05,60.05,0,0,1,34.72,40.67ZM37.19,50a14,14,0,0,1,22-11.5L39.69,58A14,14,0,0,1,37.19,50Zm14,14a14,14,0,0,1-8-2.5L62.69,42a14,14,0,0,1-11.5,22Zm16.46-4.65a18.79,18.79,0,0,0,0-18.68A59.51,59.51,0,0,1,80.19,50,59,59,0,0,1,67.65,59.35Z"/></svg>