<svg id="Layer_1" data-name="Layer 1" xmlns="http://www.w3.org/2000/svg" viewBox="0 0 100 100"><defs><style>.cls-1{fill:#231f20;}</style></defs><title>icons</title><path class="cls-1" d="M66.46,59.35a18.79,18.79,0,0,0,0-18.68A59.78,59.78,0,0,1,79,50a59.22,59.22,0,0,1-12.54,9.35M33.53,40.67a18.79,18.79,0,0,0,0,18.66A59.43,59.43,0,0,1,21,50a59.78,59.78,0,0,1,12.53-9.33M64,50A14,14,0,1,1,50,36,14,14,0,0,1,64,50m20.3-1.63C83.7,47.68,69.85,32.26,52,31.16a18.06,18.06,0,0,0-4,0C30.15,32.26,16.3,47.68,15.7,48.37a2.46,2.46,0,0,0,0,3.27c.6.68,14.45,16.1,32.31,17.2a18.06,18.06,0,0,0,4,0c17.86-1.1,31.71-16.52,32.31-17.2a2.46,2.46,0,0,0,0-3.27"/></svg>