<svg id="Layer_1" data-name="Layer 1" xmlns="http://www.w3.org/2000/svg" viewBox="0 0 100 100"><defs><style>.cls-1{fill:#231f20;}</style></defs><title>icons</title><path class="cls-1" d="M23.85,66.33A30.43,30.43,0,1,0,66.3,23.85,35.4,35.4,0,0,1,31.82,67.22a35.79,35.79,0,0,1-8-.89M48.59,84a35.38,35.38,0,0,1-32.35-21,2.47,2.47,0,0,1,3.28-3.25,29.81,29.81,0,0,0,12.3,2.61A30.48,30.48,0,0,0,62.26,31.84a30,30,0,0,0-2.61-12.33,2.46,2.46,0,0,1,.5-2.75,2.49,2.49,0,0,1,2.76-.52A35.38,35.38,0,0,1,48.59,84"/></svg>