<svg id="Layer_1" data-name="Layer 1" xmlns="http://www.w3.org/2000/svg" viewBox="0 0 100 100"><defs><style>.cls-1{fill:#231f20;}</style></defs><title>icons</title><path class="cls-1" d="M50,38.28A11.72,11.72,0,1,0,61.72,50,11.74,11.74,0,0,0,50,38.28m0,28.39A16.67,16.67,0,1,1,66.66,50,16.69,16.69,0,0,1,50,66.67"/><path class="cls-1" d="M50,28a2.48,2.48,0,0,1-2.48-2.48V14.15a2.48,2.48,0,0,1,4.95,0V25.49A2.48,2.48,0,0,1,50,28"/><path class="cls-1" d="M50,88.32a2.48,2.48,0,0,1-2.48-2.48V74.51a2.48,2.48,0,1,1,4.95,0V85.84A2.48,2.48,0,0,1,50,88.32"/><path class="cls-1" d="M85.84,52.47H74.5a2.47,2.47,0,0,1,0-4.94H85.84a2.47,2.47,0,1,1,0,4.94"/><path class="cls-1" d="M25.49,52.47H14.15a2.47,2.47,0,0,1,0-4.94H25.49a2.47,2.47,0,1,1,0,4.94"/><path class="cls-1" d="M67.33,35.15a2.43,2.43,0,0,1-1.75-.73,2.47,2.47,0,0,1,0-3.5l8-8a2.47,2.47,0,0,1,3.5,3.49l-8,8a2.46,2.46,0,0,1-1.75.73"/><path class="cls-1" d="M24.65,77.82A2.47,2.47,0,0,1,22.9,73.6l8-8a2.47,2.47,0,0,1,3.5,3.5l-8,8a2.46,2.46,0,0,1-1.75.72"/><path class="cls-1" d="M75.35,77.82a2.46,2.46,0,0,1-1.75-.72l-8-8a2.47,2.47,0,0,1,3.5-3.5l8,8a2.47,2.47,0,0,1-1.75,4.22"/><path class="cls-1" d="M32.67,35.15a2.44,2.44,0,0,1-1.75-.73l-8-8a2.47,2.47,0,0,1,3.49-3.49l8,8a2.48,2.48,0,0,1-1.75,4.23"/></svg>