<svg id="Layer_1" data-name="Layer 1" xmlns="http://www.w3.org/2000/svg" viewBox="0 0 100 100"><defs><style>.cls-1{fill:#231f20;}</style></defs><title>icons</title><path class="cls-1" d="M50,21A29,29,0,1,0,79,50,29,29,0,0,0,50,21m0,63A34,34,0,1,1,84,50,34,34,0,0,1,50,84"/><path class="cls-1" d="M42.21,56.7a3.53,3.53,0,0,0,1.87-.46,3.57,3.57,0,0,0,1.23-1.18A4.87,4.87,0,0,0,46,53.39a9.63,9.63,0,0,0,.2-2V43.21h3.11v8.23a11.59,11.59,0,0,1-.4,3.12,7.07,7.07,0,0,1-1.25,2.55,6.07,6.07,0,0,1-2.19,1.73,7.53,7.53,0,0,1-3.21.64,7.34,7.34,0,0,1-3.29-.68A6.1,6.1,0,0,1,36.75,57a7.15,7.15,0,0,1-1.22-2.56,12.09,12.09,0,0,1-.37-3V43.21h3.13v8.23a9.68,9.68,0,0,0,.2,2,4.87,4.87,0,0,0,.66,1.67,3.54,3.54,0,0,0,1.22,1.18,3.58,3.58,0,0,0,1.84.44"/><polygon class="cls-1" points="54.1 43.21 58.47 55.43 62.79 43.21 66.09 43.21 59.79 59.36 57.15 59.36 50.81 43.21 54.1 43.21"/></svg>