<?xml version="1.0" encoding="utf-8"?>
<!-- Generator: Adobe Illustrator 19.1.0, SVG Export Plug-In . SVG Version: 6.00 Build 0)  -->
<svg version="1.1" id="Layer_1" xmlns="http://www.w3.org/2000/svg" xmlns:xlink="http://www.w3.org/1999/xlink" x="0px" y="0px"
	 viewBox="0 0 36 66" style="enable-background:new 0 0 36 66;" xml:space="preserve">
<style type="text/css">
	.st0{fill:#A2988E;}
	.st1{fill:none;stroke:#FFFFFF;stroke-width:0.6348;stroke-linecap:round;stroke-linejoin:round;stroke-miterlimit:10;}
</style>
<g>
	<g>
		<polygon class="st0" points="24.402,20.846 24.403,20.846 24.403,20.846 24.525,20.806 		"/>
		<path class="st0" d="M21.937,12.613c-0.117-0.858-0.285-2.32-0.285-3.685c0-2.124,0.01-4.737,0.01-4.737
			c0-0.064-0.003-1.593-1.055-2.649C19.973,0.904,19.096,0.58,18,0.58c-1.096,0-1.974,0.324-2.608,0.962
			c-1.052,1.058-1.054,2.585-1.054,2.648c0,0.001,0.01,2.614,0.01,4.738c0,1.364-0.168,2.825-0.285,3.684
			C14.798,12.563,18.378,12.343,21.937,12.613z"/>
		<path class="st0" d="M26.962,31.373c-0.456-1.876-2.21-3.375-2.941-3.932c-0.562-0.429-0.596-0.589-0.758-1.355l-0.037-0.178
			c-0.167-0.785-0.169-1.84-0.166-2.12c0.139-0.083,0.473-0.282,0.605-0.349c0.222-0.116,0.378-0.403,0.361-0.671
			c-0.01-0.154-0.052-0.287-0.109-0.41c-0.193,0.02-0.42,0.034-0.736,0.031c-1.483,0.139-3.178,0.21-4.977,0.21
			c-3.033,0-5.375-0.204-5.473-0.213c-0.253,0.005-0.463-0.005-0.653-0.025c-0.055,0.123-0.096,0.255-0.106,0.408
			c-0.017,0.266,0.138,0.554,0.361,0.67c0.132,0.067,0.467,0.267,0.605,0.349c0.003,0.28,0.001,1.335-0.166,2.12l-0.037,0.178
			c-0.162,0.767-0.195,0.927-0.758,1.355c-0.732,0.557-2.485,2.057-2.942,3.932c-0.458,1.879-0.375,5.59-0.371,5.744l0.001,24.779
			c0.011,0.125,0.314,3.064,2.47,3.423c2.072,0.347,6.82,0.248,6.86,0.248c0.017,0,0.655,0.013,1.56,0.013
			c1.585,0,3.988-0.04,5.306-0.261c2.155-0.359,2.46-3.298,2.472-3.435V37.12C27.339,36.963,27.421,33.252,26.962,31.373z"/>
	</g>
	<path id="XMLID_132_" class="st0" d="M24.688,20.937c-0.016-0.343-0.108-0.27-0.108-0.705v-5.79c0,0,0.016-0.612-0.407-0.719
		c-0.534-0.136-1.262-0.195-2.031-0.228c-4.153-0.333-8.284,0-8.284,0c-0.769,0.034-1.497,0.093-2.031,0.228
		c-0.423,0.107-0.407,0.719-0.407,0.719v5.79c0,0.434-0.091,0.361-0.108,0.705c-0.016,0.344,0.081,0.378,0.081,0.378
		c0.237,0.152,1.113,0.13,1.113,0.13s5.493,0.524,10.986,0c0,0,0.876,0.022,1.114-0.13C24.607,21.315,24.704,21.281,24.688,20.937z"
		/>
</g>
</svg>
