<?xml version="1.0" encoding="utf-8"?>
<!-- Generator: Adobe Illustrator 19.1.0, SVG Export Plug-In . SVG Version: 6.00 Build 0)  -->
<svg version="1.1" id="Layer_1" xmlns="http://www.w3.org/2000/svg" xmlns:xlink="http://www.w3.org/1999/xlink" x="0px" y="0px"
	 viewBox="0 0 422.362 226.772" style="enable-background:new 0 0 422.362 226.772;" xml:space="preserve">
<style type="text/css">
	.st0{fill:#EFEEEC;}
	.st1{fill:none;stroke:#BEB6AF;stroke-linecap:round;stroke-linejoin:round;stroke-miterlimit:10;}
	.st2{fill:none;stroke:#BEB6AF;stroke-linecap:round;stroke-linejoin:round;}
	.st3{fill:#BEB6AF;}
</style>
<g>
	<rect x="1.178" y="185.068" class="st0" width="113.476" height="41"/>
	<rect x="307.708" y="185.068" class="st0" width="113.476" height="41"/>
	<rect x="148.041" y="185.068" class="st0" width="126.25" height="41"/>
	<g>
		<path d="M27.258,11.504c-0.76,0-1.453-0.152-2.078-0.458s-1.163-0.71-1.612-1.215c-0.45-0.505-0.798-1.082-1.042-1.732
			c-0.245-0.65-0.368-1.315-0.368-1.995c0-0.71,0.13-1.39,0.39-2.04c0.26-0.65,0.617-1.225,1.072-1.725s0.995-0.897,1.62-1.193
			c0.625-0.294,1.308-0.442,2.047-0.442c0.76,0,1.453,0.158,2.078,0.473s1.16,0.728,1.605,1.237c0.445,0.51,0.79,1.087,1.035,1.732
			c0.245,0.645,0.368,1.303,0.368,1.973c0,0.71-0.128,1.39-0.383,2.04c-0.255,0.65-0.613,1.223-1.072,1.717
			c-0.46,0.495-1.003,0.891-1.627,1.185C28.665,11.357,27.988,11.504,27.258,11.504z M23.868,6.104c0,0.5,0.08,0.985,0.24,1.455
			c0.16,0.47,0.387,0.885,0.683,1.245c0.294,0.36,0.652,0.647,1.072,0.862c0.42,0.215,0.89,0.323,1.41,0.323
			c0.54,0,1.017-0.113,1.432-0.337c0.415-0.225,0.768-0.522,1.058-0.893s0.51-0.785,0.66-1.245s0.225-0.93,0.225-1.41
			c0-0.51-0.08-0.997-0.24-1.462c-0.16-0.465-0.388-0.875-0.683-1.23s-0.65-0.64-1.065-0.855c-0.415-0.215-0.877-0.322-1.387-0.322
			c-0.54,0-1.02,0.112-1.44,0.337c-0.42,0.225-0.775,0.518-1.065,0.877S24.256,4.221,24.1,4.686
			C23.945,5.151,23.868,5.624,23.868,6.104z"/>
	</g>
	<g>
		<path d="M53.106,6.029c0-0.64,0.115-1.277,0.345-1.913c0.23-0.635,0.567-1.205,1.012-1.71s0.988-0.913,1.627-1.223
			c0.64-0.31,1.365-0.465,2.175-0.465c0.97,0,1.8,0.215,2.49,0.645c0.69,0.43,1.21,0.99,1.56,1.68l-1.32,0.885
			c-0.15-0.32-0.33-0.59-0.54-0.81c-0.21-0.22-0.44-0.395-0.69-0.525s-0.51-0.223-0.78-0.277c-0.27-0.055-0.53-0.083-0.78-0.083
			c-0.56,0-1.05,0.112-1.47,0.337c-0.42,0.225-0.772,0.522-1.057,0.893c-0.285,0.37-0.5,0.785-0.645,1.245
			c-0.145,0.46-0.218,0.92-0.218,1.38c0,0.52,0.085,1.015,0.255,1.485c0.17,0.47,0.407,0.885,0.712,1.245
			c0.305,0.36,0.667,0.647,1.087,0.862c0.42,0.215,0.88,0.323,1.38,0.323c0.26,0,0.527-0.033,0.803-0.098
			c0.275-0.065,0.54-0.17,0.795-0.315s0.49-0.328,0.705-0.547c0.215-0.22,0.392-0.485,0.532-0.795l1.395,0.795
			c-0.17,0.4-0.41,0.752-0.72,1.057c-0.31,0.305-0.66,0.562-1.05,0.772c-0.39,0.21-0.802,0.37-1.237,0.48
			c-0.435,0.11-0.863,0.165-1.283,0.165c-0.75,0-1.435-0.16-2.055-0.48c-0.62-0.32-1.155-0.737-1.605-1.252
			c-0.45-0.515-0.8-1.1-1.05-1.755C53.231,7.377,53.106,6.709,53.106,6.029z"/>
	</g>
	<g>
		<path d="M20.433,30.445v10.65h-1.695V36.4h-5.37v4.695h-1.68v-10.65h1.68V34.9h5.37v-4.455H20.433z"/>
		<path d="M27.258,41.17c-0.76,0-1.453-0.152-2.078-0.458s-1.163-0.71-1.612-1.215c-0.45-0.505-0.798-1.082-1.042-1.732
			c-0.245-0.65-0.368-1.315-0.368-1.995c0-0.71,0.13-1.39,0.39-2.04c0.26-0.65,0.617-1.225,1.072-1.725s0.995-0.897,1.62-1.193
			c0.625-0.294,1.308-0.442,2.047-0.442c0.76,0,1.453,0.158,2.078,0.473s1.16,0.728,1.605,1.237c0.445,0.51,0.79,1.087,1.035,1.732
			c0.245,0.645,0.368,1.303,0.368,1.973c0,0.71-0.128,1.39-0.383,2.04c-0.255,0.65-0.613,1.223-1.072,1.717
			c-0.46,0.495-1.003,0.891-1.627,1.185C28.665,41.023,27.988,41.17,27.258,41.17z M23.868,35.77c0,0.5,0.08,0.985,0.24,1.455
			c0.16,0.47,0.387,0.885,0.683,1.245c0.294,0.36,0.652,0.647,1.072,0.862c0.42,0.215,0.89,0.323,1.41,0.323
			c0.54,0,1.017-0.113,1.432-0.337c0.415-0.225,0.768-0.522,1.058-0.893s0.51-0.785,0.66-1.245s0.225-0.93,0.225-1.41
			c0-0.51-0.08-0.997-0.24-1.462c-0.16-0.465-0.388-0.875-0.683-1.23s-0.65-0.64-1.065-0.855c-0.415-0.215-0.877-0.322-1.387-0.322
			c-0.54,0-1.02,0.112-1.44,0.337c-0.42,0.225-0.775,0.518-1.065,0.877s-0.512,0.772-0.667,1.237
			C23.945,34.818,23.868,35.29,23.868,35.77z"/>
	</g>
	<g>
		<path d="M53.106,35.695c0-0.64,0.115-1.277,0.345-1.913c0.23-0.635,0.567-1.205,1.012-1.71s0.988-0.913,1.627-1.223
			c0.64-0.31,1.365-0.465,2.175-0.465c0.97,0,1.8,0.215,2.49,0.645c0.69,0.43,1.21,0.99,1.56,1.68l-1.32,0.885
			c-0.15-0.32-0.33-0.59-0.54-0.81c-0.21-0.22-0.44-0.395-0.69-0.525s-0.51-0.223-0.78-0.277c-0.27-0.055-0.53-0.083-0.78-0.083
			c-0.56,0-1.05,0.112-1.47,0.337c-0.42,0.225-0.772,0.522-1.057,0.893c-0.285,0.37-0.5,0.785-0.645,1.245
			c-0.145,0.46-0.218,0.92-0.218,1.38c0,0.52,0.085,1.015,0.255,1.485c0.17,0.47,0.407,0.885,0.712,1.245
			c0.305,0.36,0.667,0.647,1.087,0.862c0.42,0.215,0.88,0.323,1.38,0.323c0.26,0,0.527-0.033,0.803-0.098
			c0.275-0.065,0.54-0.17,0.795-0.315s0.49-0.328,0.705-0.547c0.215-0.22,0.392-0.485,0.532-0.795l1.395,0.795
			c-0.17,0.4-0.41,0.752-0.72,1.057c-0.31,0.305-0.66,0.562-1.05,0.772c-0.39,0.21-0.802,0.37-1.237,0.48
			c-0.435,0.11-0.863,0.165-1.283,0.165c-0.75,0-1.435-0.16-2.055-0.48c-0.62-0.32-1.155-0.737-1.605-1.252
			c-0.45-0.515-0.8-1.1-1.05-1.755C53.231,37.043,53.106,36.376,53.106,35.695z"/>
	</g>
	<g>
		<path d="M116.5,33.735V32.25h11.955v1.485H116.5z"/>
		<path d="M129.79,37.095c0-0.42,0.035-0.81,0.105-1.17c0.07-0.36,0.195-0.698,0.375-1.013c0.18-0.315,0.425-0.615,0.735-0.9
			s0.71-0.562,1.2-0.833c0.35-0.19,0.68-0.365,0.99-0.525c0.31-0.16,0.583-0.317,0.817-0.473c0.235-0.155,0.422-0.32,0.562-0.495
			c0.14-0.175,0.21-0.377,0.21-0.607c0-0.32-0.138-0.607-0.413-0.862c-0.275-0.255-0.673-0.382-1.192-0.382
			c-0.27,0-0.518,0.037-0.743,0.112s-0.43,0.17-0.615,0.285c-0.185,0.115-0.347,0.242-0.487,0.382s-0.265,0.275-0.375,0.405
			l-1.05-1.215c0.1-0.11,0.257-0.248,0.472-0.413s0.475-0.322,0.78-0.472c0.305-0.15,0.652-0.278,1.042-0.383
			c0.39-0.105,0.815-0.157,1.275-0.157c0.48,0,0.913,0.062,1.297,0.188s0.71,0.297,0.975,0.518c0.265,0.22,0.467,0.482,0.607,0.787
			c0.14,0.305,0.21,0.633,0.21,0.982c0,0.37-0.075,0.7-0.225,0.99c-0.15,0.29-0.335,0.545-0.555,0.765
			c-0.22,0.22-0.46,0.407-0.72,0.562c-0.26,0.155-0.5,0.288-0.72,0.397c-0.21,0.1-0.448,0.217-0.713,0.353
			c-0.265,0.135-0.522,0.29-0.772,0.465c-0.25,0.175-0.475,0.363-0.675,0.562c-0.2,0.2-0.34,0.42-0.42,0.66h4.965v1.485H129.79z"/>
		<path d="M147.37,26.445v10.65h-1.695V32.4h-5.37v4.695h-1.68v-10.65h1.68V30.9h5.37v-4.455H147.37z"/>
	</g>
	<g>
		<path d="M284.191,26.445v10.65h-1.694V32.4h-5.37v4.695h-1.68v-10.65h1.68V30.9h5.37v-4.455H284.191z"/>
		<path d="M284.99,42.09c0-0.245,0.021-0.472,0.062-0.682s0.114-0.407,0.219-0.59s0.248-0.358,0.429-0.524
			c0.181-0.167,0.414-0.328,0.699-0.485c0.204-0.111,0.396-0.213,0.577-0.306s0.34-0.185,0.477-0.275s0.246-0.187,0.328-0.289
			s0.122-0.22,0.122-0.354c0-0.187-0.08-0.354-0.24-0.503c-0.16-0.148-0.392-0.223-0.695-0.223c-0.157,0-0.302,0.021-0.433,0.065
			s-0.251,0.099-0.358,0.166c-0.108,0.067-0.203,0.142-0.284,0.223c-0.082,0.082-0.154,0.161-0.219,0.236l-0.612-0.708
			c0.059-0.064,0.15-0.145,0.275-0.241s0.277-0.188,0.455-0.275s0.38-0.162,0.607-0.223c0.228-0.061,0.476-0.092,0.743-0.092
			c0.28,0,0.532,0.037,0.757,0.109c0.225,0.073,0.414,0.174,0.568,0.302c0.154,0.128,0.272,0.281,0.354,0.459
			c0.081,0.178,0.122,0.369,0.122,0.573c0,0.215-0.044,0.408-0.131,0.577c-0.088,0.169-0.195,0.317-0.324,0.446
			c-0.128,0.128-0.268,0.238-0.419,0.328c-0.152,0.09-0.292,0.167-0.42,0.231c-0.123,0.059-0.262,0.127-0.416,0.206
			s-0.305,0.169-0.45,0.271c-0.146,0.102-0.276,0.211-0.394,0.328c-0.116,0.117-0.198,0.245-0.245,0.385h2.896v0.866H284.99z"/>
		<path d="M294.63,37.17c-0.761,0-1.453-0.152-2.078-0.458s-1.162-0.71-1.612-1.215c-0.45-0.505-0.798-1.082-1.042-1.732
			c-0.245-0.65-0.368-1.315-0.368-1.995c0-0.71,0.13-1.39,0.391-2.04c0.26-0.65,0.617-1.225,1.072-1.725s0.995-0.897,1.62-1.193
			c0.625-0.294,1.308-0.442,2.047-0.442c0.761,0,1.453,0.158,2.078,0.473s1.16,0.728,1.604,1.237c0.445,0.51,0.79,1.087,1.035,1.732
			s0.368,1.303,0.368,1.973c0,0.71-0.128,1.39-0.383,2.04c-0.255,0.65-0.613,1.223-1.072,1.717
			c-0.461,0.495-1.003,0.891-1.628,1.185C296.037,37.023,295.359,37.17,294.63,37.17z M291.239,31.77c0,0.5,0.08,0.985,0.24,1.455
			c0.16,0.47,0.388,0.885,0.683,1.245s0.652,0.647,1.072,0.862c0.42,0.215,0.891,0.323,1.41,0.323c0.54,0,1.018-0.113,1.433-0.337
			c0.415-0.225,0.768-0.522,1.058-0.893s0.51-0.785,0.66-1.245c0.149-0.46,0.225-0.93,0.225-1.41c0-0.51-0.08-0.997-0.24-1.462
			c-0.16-0.465-0.388-0.875-0.683-1.23s-0.649-0.64-1.064-0.855c-0.415-0.215-0.878-0.322-1.388-0.322
			c-0.54,0-1.02,0.112-1.439,0.337c-0.421,0.225-0.775,0.518-1.065,0.877s-0.513,0.772-0.668,1.237
			C291.318,30.818,291.239,31.29,291.239,31.77z"/>
	</g>
	<g>
		<path d="M20.433,61.445v10.65h-1.695V67.4h-5.37v4.695h-1.68v-10.65h1.68V65.9h5.37v-4.455H20.433z"/>
		<path d="M27.258,72.17c-0.76,0-1.453-0.152-2.078-0.458s-1.163-0.71-1.612-1.215c-0.45-0.505-0.798-1.082-1.042-1.732
			c-0.245-0.65-0.368-1.315-0.368-1.995c0-0.71,0.13-1.39,0.39-2.04c0.26-0.65,0.617-1.225,1.072-1.725s0.995-0.897,1.62-1.193
			c0.625-0.294,1.308-0.442,2.047-0.442c0.76,0,1.453,0.158,2.078,0.473s1.16,0.728,1.605,1.237c0.445,0.51,0.79,1.087,1.035,1.732
			c0.245,0.645,0.368,1.303,0.368,1.973c0,0.71-0.128,1.39-0.383,2.04c-0.255,0.65-0.613,1.223-1.072,1.717
			c-0.46,0.495-1.003,0.891-1.627,1.185C28.665,72.023,27.988,72.17,27.258,72.17z M23.868,66.77c0,0.5,0.08,0.985,0.24,1.455
			c0.16,0.47,0.387,0.885,0.683,1.245c0.294,0.36,0.652,0.647,1.072,0.862c0.42,0.215,0.89,0.323,1.41,0.323
			c0.54,0,1.017-0.113,1.432-0.337c0.415-0.225,0.768-0.522,1.058-0.893s0.51-0.785,0.66-1.245s0.225-0.93,0.225-1.41
			c0-0.51-0.08-0.997-0.24-1.462c-0.16-0.465-0.388-0.875-0.683-1.23s-0.65-0.64-1.065-0.855c-0.415-0.215-0.877-0.322-1.387-0.322
			c-0.54,0-1.02,0.112-1.44,0.337c-0.42,0.225-0.775,0.518-1.065,0.877s-0.512,0.772-0.667,1.237
			C23.945,65.818,23.868,66.29,23.868,66.77z"/>
	</g>
	<g>
		<path d="M53.106,66.695c0-0.64,0.115-1.277,0.345-1.913c0.23-0.635,0.567-1.205,1.012-1.71s0.988-0.913,1.627-1.223
			c0.64-0.31,1.365-0.465,2.175-0.465c0.97,0,1.8,0.215,2.49,0.645c0.69,0.43,1.21,0.99,1.56,1.68l-1.32,0.885
			c-0.15-0.32-0.33-0.59-0.54-0.81c-0.21-0.22-0.44-0.395-0.69-0.525s-0.51-0.223-0.78-0.277c-0.27-0.055-0.53-0.083-0.78-0.083
			c-0.56,0-1.05,0.112-1.47,0.337c-0.42,0.225-0.772,0.522-1.057,0.893c-0.285,0.37-0.5,0.785-0.645,1.245
			c-0.145,0.46-0.218,0.92-0.218,1.38c0,0.52,0.085,1.015,0.255,1.485c0.17,0.47,0.407,0.885,0.712,1.245
			c0.305,0.36,0.667,0.647,1.087,0.862c0.42,0.215,0.88,0.323,1.38,0.323c0.26,0,0.527-0.033,0.803-0.098
			c0.275-0.065,0.54-0.17,0.795-0.315s0.49-0.328,0.705-0.547c0.215-0.22,0.392-0.485,0.532-0.795l1.395,0.795
			c-0.17,0.4-0.41,0.752-0.72,1.057c-0.31,0.305-0.66,0.562-1.05,0.772c-0.39,0.21-0.802,0.37-1.237,0.48
			c-0.435,0.11-0.863,0.165-1.283,0.165c-0.75,0-1.435-0.16-2.055-0.48c-0.62-0.32-1.155-0.737-1.605-1.252
			c-0.45-0.515-0.8-1.1-1.05-1.755C53.231,68.043,53.106,67.376,53.106,66.695z"/>
	</g>
	<g>
		<path d="M20.433,122.779v10.65h-1.695v-4.695h-5.37v4.695h-1.68v-10.65h1.68v4.455h5.37v-4.455H20.433z"/>
		<path d="M27.258,133.504c-0.76,0-1.453-0.152-2.078-0.458s-1.163-0.71-1.612-1.215c-0.45-0.505-0.798-1.082-1.042-1.732
			c-0.245-0.65-0.368-1.315-0.368-1.995c0-0.71,0.13-1.39,0.39-2.04c0.26-0.65,0.617-1.225,1.072-1.725s0.995-0.897,1.62-1.193
			c0.625-0.294,1.308-0.442,2.047-0.442c0.76,0,1.453,0.158,2.078,0.473s1.16,0.728,1.605,1.237c0.445,0.51,0.79,1.087,1.035,1.732
			c0.245,0.645,0.368,1.303,0.368,1.973c0,0.71-0.128,1.39-0.383,2.04c-0.255,0.65-0.613,1.223-1.072,1.717
			c-0.46,0.495-1.003,0.891-1.627,1.185C28.665,133.357,27.988,133.504,27.258,133.504z M23.868,128.104
			c0,0.5,0.08,0.985,0.24,1.455c0.16,0.47,0.387,0.885,0.683,1.245c0.294,0.36,0.652,0.647,1.072,0.862
			c0.42,0.215,0.89,0.323,1.41,0.323c0.54,0,1.017-0.113,1.432-0.337c0.415-0.225,0.768-0.522,1.058-0.893s0.51-0.785,0.66-1.245
			s0.225-0.93,0.225-1.41c0-0.51-0.08-0.997-0.24-1.462c-0.16-0.465-0.388-0.875-0.683-1.23s-0.65-0.64-1.065-0.855
			c-0.415-0.215-0.877-0.322-1.387-0.322c-0.54,0-1.02,0.112-1.44,0.337c-0.42,0.225-0.775,0.518-1.065,0.877
			s-0.512,0.772-0.667,1.237C23.945,127.151,23.868,127.624,23.868,128.104z"/>
	</g>
	<g>
		<path d="M94.046,122.779v10.65h-1.695v-4.695h-5.37v4.695h-1.68v-10.65h1.68v4.455h5.37v-4.455H94.046z"/>
	</g>
	<g>
		<path d="M89.591,56.504c-0.76,0-1.453-0.152-2.078-0.458s-1.163-0.71-1.612-1.215c-0.45-0.505-0.798-1.082-1.042-1.732
			c-0.245-0.65-0.368-1.315-0.368-1.995c0-0.71,0.13-1.39,0.39-2.04c0.26-0.65,0.617-1.225,1.072-1.725s0.995-0.897,1.62-1.193
			c0.625-0.294,1.308-0.442,2.047-0.442c0.76,0,1.453,0.158,2.078,0.473s1.16,0.728,1.605,1.237c0.445,0.51,0.79,1.087,1.035,1.732
			c0.245,0.645,0.368,1.303,0.368,1.973c0,0.71-0.128,1.39-0.383,2.04c-0.255,0.65-0.613,1.223-1.072,1.717
			c-0.46,0.495-1.003,0.891-1.627,1.185C90.999,56.357,90.321,56.504,89.591,56.504z M86.201,51.104c0,0.5,0.08,0.985,0.24,1.455
			c0.16,0.47,0.387,0.885,0.683,1.245c0.294,0.36,0.652,0.647,1.072,0.862c0.42,0.215,0.89,0.323,1.41,0.323
			c0.54,0,1.017-0.113,1.432-0.337c0.415-0.225,0.768-0.522,1.058-0.893s0.51-0.785,0.66-1.245s0.225-0.93,0.225-1.41
			c0-0.51-0.08-0.997-0.24-1.462c-0.16-0.465-0.388-0.875-0.683-1.23s-0.65-0.64-1.065-0.855c-0.415-0.215-0.877-0.322-1.387-0.322
			c-0.54,0-1.02,0.112-1.44,0.337c-0.42,0.225-0.775,0.518-1.065,0.877s-0.512,0.772-0.667,1.237
			C86.279,50.151,86.201,50.624,86.201,51.104z"/>
	</g>
	<g>
		<path d="M53.106,128.029c0-0.64,0.115-1.277,0.345-1.913c0.23-0.635,0.567-1.205,1.012-1.71s0.988-0.913,1.627-1.223
			c0.64-0.31,1.365-0.465,2.175-0.465c0.97,0,1.8,0.215,2.49,0.645c0.69,0.43,1.21,0.99,1.56,1.68l-1.32,0.885
			c-0.15-0.32-0.33-0.59-0.54-0.81c-0.21-0.22-0.44-0.395-0.69-0.525s-0.51-0.223-0.78-0.277c-0.27-0.055-0.53-0.083-0.78-0.083
			c-0.56,0-1.05,0.112-1.47,0.337c-0.42,0.225-0.772,0.522-1.057,0.893c-0.285,0.37-0.5,0.785-0.645,1.245
			c-0.145,0.46-0.218,0.92-0.218,1.38c0,0.52,0.085,1.015,0.255,1.485c0.17,0.47,0.407,0.885,0.712,1.245
			c0.305,0.36,0.667,0.647,1.087,0.862c0.42,0.215,0.88,0.323,1.38,0.323c0.26,0,0.527-0.033,0.803-0.098
			c0.275-0.065,0.54-0.17,0.795-0.315s0.49-0.328,0.705-0.547c0.215-0.22,0.392-0.485,0.532-0.795l1.395,0.795
			c-0.17,0.4-0.41,0.752-0.72,1.057c-0.31,0.305-0.66,0.562-1.05,0.772c-0.39,0.21-0.802,0.37-1.237,0.48
			c-0.435,0.11-0.863,0.165-1.283,0.165c-0.75,0-1.435-0.16-2.055-0.48c-0.62-0.32-1.155-0.737-1.605-1.252
			c-0.45-0.515-0.8-1.1-1.05-1.755C53.231,129.377,53.106,128.709,53.106,128.029z"/>
	</g>
	<g>
		<path d="M53.106,158.696c0-0.64,0.115-1.277,0.345-1.912c0.23-0.635,0.567-1.205,1.012-1.71s0.988-0.913,1.627-1.223
			c0.64-0.31,1.365-0.465,2.175-0.465c0.97,0,1.8,0.215,2.49,0.645c0.69,0.431,1.21,0.99,1.56,1.681l-1.32,0.885
			c-0.15-0.32-0.33-0.59-0.54-0.811c-0.21-0.22-0.44-0.395-0.69-0.524s-0.51-0.223-0.78-0.277c-0.27-0.056-0.53-0.083-0.78-0.083
			c-0.56,0-1.05,0.112-1.47,0.338c-0.42,0.225-0.772,0.522-1.057,0.893c-0.285,0.37-0.5,0.785-0.645,1.244
			c-0.145,0.461-0.218,0.921-0.218,1.381c0,0.52,0.085,1.015,0.255,1.484c0.17,0.471,0.407,0.885,0.712,1.245
			c0.305,0.36,0.667,0.647,1.087,0.862c0.42,0.216,0.88,0.323,1.38,0.323c0.26,0,0.527-0.033,0.803-0.098
			c0.275-0.065,0.54-0.17,0.795-0.315c0.255-0.145,0.49-0.327,0.705-0.547c0.215-0.221,0.392-0.485,0.532-0.796l1.395,0.796
			c-0.17,0.399-0.41,0.752-0.72,1.057c-0.31,0.306-0.66,0.562-1.05,0.772c-0.39,0.21-0.802,0.37-1.237,0.48
			s-0.863,0.165-1.283,0.165c-0.75,0-1.435-0.16-2.055-0.48c-0.62-0.319-1.155-0.737-1.605-1.252c-0.45-0.515-0.8-1.1-1.05-1.755
			S53.106,159.377,53.106,158.696z"/>
		<path d="M72.786,153.446v10.65h-1.695v-4.695h-5.37v4.695h-1.68v-10.65h1.68v4.455h5.37v-4.455H72.786z"/>
		<path d="M73.586,169.091c0-0.245,0.021-0.473,0.062-0.683c0.041-0.21,0.114-0.406,0.219-0.59c0.104-0.184,0.248-0.358,0.428-0.524
			c0.181-0.167,0.414-0.328,0.7-0.485c0.204-0.111,0.396-0.213,0.577-0.307c0.181-0.093,0.339-0.185,0.477-0.275
			c0.137-0.09,0.246-0.187,0.328-0.288c0.082-0.103,0.122-0.221,0.122-0.354c0-0.187-0.08-0.354-0.24-0.503
			c-0.161-0.148-0.392-0.223-0.695-0.223c-0.157,0-0.302,0.021-0.433,0.065c-0.131,0.044-0.25,0.099-0.358,0.166
			s-0.203,0.142-0.284,0.223c-0.082,0.082-0.154,0.161-0.219,0.236l-0.612-0.708c0.058-0.064,0.15-0.145,0.275-0.241
			c0.125-0.096,0.277-0.188,0.455-0.275c0.178-0.087,0.38-0.161,0.608-0.223s0.475-0.092,0.743-0.092
			c0.28,0,0.532,0.036,0.756,0.109c0.225,0.073,0.414,0.174,0.569,0.302c0.154,0.128,0.272,0.281,0.354,0.459
			s0.123,0.369,0.123,0.573c0,0.215-0.044,0.407-0.131,0.577c-0.087,0.169-0.195,0.317-0.324,0.445
			c-0.128,0.129-0.268,0.238-0.419,0.328c-0.152,0.091-0.292,0.168-0.42,0.231c-0.123,0.059-0.261,0.127-0.416,0.206
			c-0.154,0.078-0.305,0.169-0.45,0.271c-0.146,0.103-0.277,0.212-0.394,0.328c-0.117,0.117-0.198,0.245-0.245,0.385h2.895v0.866
			H73.586z"/>
		<path d="M83.225,164.171c-0.76,0-1.453-0.152-2.078-0.458c-0.625-0.305-1.163-0.71-1.612-1.215
			c-0.45-0.505-0.798-1.082-1.042-1.732c-0.245-0.65-0.368-1.315-0.368-1.995c0-0.71,0.13-1.39,0.39-2.04
			c0.26-0.65,0.617-1.225,1.072-1.725s0.995-0.897,1.62-1.193c0.625-0.294,1.308-0.442,2.047-0.442c0.76,0,1.453,0.158,2.078,0.473
			c0.625,0.315,1.16,0.728,1.605,1.237c0.445,0.511,0.79,1.088,1.035,1.732c0.245,0.646,0.368,1.303,0.368,1.973
			c0,0.711-0.128,1.391-0.383,2.04c-0.255,0.65-0.613,1.223-1.072,1.718c-0.46,0.495-1.003,0.891-1.627,1.185
			C84.632,164.024,83.955,164.171,83.225,164.171z M79.835,158.771c0,0.5,0.08,0.985,0.24,1.455c0.16,0.47,0.387,0.885,0.683,1.245
			c0.294,0.359,0.652,0.647,1.072,0.862s0.89,0.322,1.41,0.322c0.54,0,1.017-0.112,1.432-0.337c0.415-0.226,0.768-0.522,1.058-0.893
			s0.51-0.785,0.66-1.245s0.225-0.931,0.225-1.41c0-0.51-0.08-0.997-0.24-1.463c-0.16-0.465-0.388-0.875-0.683-1.229
			c-0.295-0.355-0.65-0.64-1.065-0.855c-0.415-0.215-0.877-0.322-1.387-0.322c-0.54,0-1.02,0.112-1.44,0.338
			c-0.42,0.225-0.775,0.518-1.065,0.877c-0.29,0.36-0.512,0.772-0.667,1.237C79.912,157.819,79.835,158.291,79.835,158.771z"/>
		<path d="M98.824,153.446v10.65H97.13v-4.695h-5.37v4.695h-1.68v-10.65h1.68v4.455h5.37v-4.455H98.824z"/>
	</g>
	<g>
		<path d="M31.713,91.779v10.65h-1.695v-4.695h-5.37v4.695h-1.68v-10.65h1.68v4.455h5.37v-4.455H31.713z"/>
	</g>
	<g>
		<path d="M53.106,97.029c0-0.64,0.115-1.277,0.345-1.913c0.23-0.635,0.567-1.205,1.012-1.71s0.988-0.913,1.627-1.223
			c0.64-0.31,1.365-0.465,2.175-0.465c0.97,0,1.8,0.215,2.49,0.645c0.69,0.43,1.21,0.99,1.56,1.68l-1.32,0.885
			c-0.15-0.32-0.33-0.59-0.54-0.81c-0.21-0.22-0.44-0.395-0.69-0.525s-0.51-0.223-0.78-0.277c-0.27-0.055-0.53-0.083-0.78-0.083
			c-0.56,0-1.05,0.112-1.47,0.337c-0.42,0.225-0.772,0.522-1.057,0.893c-0.285,0.37-0.5,0.785-0.645,1.245
			c-0.145,0.46-0.218,0.92-0.218,1.38c0,0.52,0.085,1.015,0.255,1.485c0.17,0.47,0.407,0.885,0.712,1.245
			c0.305,0.36,0.667,0.647,1.087,0.862c0.42,0.215,0.88,0.323,1.38,0.323c0.26,0,0.527-0.033,0.803-0.098
			c0.275-0.065,0.54-0.17,0.795-0.315s0.49-0.328,0.705-0.547c0.215-0.22,0.392-0.485,0.532-0.795l1.395,0.795
			c-0.17,0.4-0.41,0.752-0.72,1.057c-0.31,0.305-0.66,0.562-1.05,0.772c-0.39,0.21-0.802,0.37-1.237,0.48
			c-0.435,0.11-0.863,0.165-1.283,0.165c-0.75,0-1.435-0.16-2.055-0.48c-0.62-0.32-1.155-0.737-1.605-1.252
			c-0.45-0.515-0.8-1.1-1.05-1.755C53.231,98.377,53.106,97.709,53.106,97.029z"/>
	</g>
	<g>
		<path d="M180.258,11.504c-0.76,0-1.453-0.152-2.078-0.458s-1.163-0.71-1.612-1.215c-0.45-0.505-0.798-1.082-1.042-1.732
			c-0.245-0.65-0.368-1.315-0.368-1.995c0-0.71,0.13-1.39,0.39-2.04c0.26-0.65,0.617-1.225,1.072-1.725s0.995-0.897,1.62-1.193
			c0.625-0.294,1.308-0.442,2.047-0.442c0.76,0,1.453,0.158,2.078,0.473s1.16,0.728,1.605,1.237c0.445,0.51,0.79,1.087,1.035,1.732
			c0.245,0.645,0.368,1.303,0.368,1.973c0,0.71-0.128,1.39-0.383,2.04c-0.255,0.65-0.613,1.223-1.072,1.717
			c-0.46,0.495-1.003,0.891-1.627,1.185C181.665,11.357,180.988,11.504,180.258,11.504z M176.868,6.104c0,0.5,0.08,0.985,0.24,1.455
			c0.16,0.47,0.387,0.885,0.683,1.245c0.294,0.36,0.652,0.647,1.072,0.862c0.42,0.215,0.89,0.323,1.41,0.323
			c0.54,0,1.017-0.113,1.432-0.337c0.415-0.225,0.768-0.522,1.058-0.893s0.51-0.785,0.66-1.245s0.225-0.93,0.225-1.41
			c0-0.51-0.08-0.997-0.24-1.462c-0.16-0.465-0.388-0.875-0.683-1.23s-0.65-0.64-1.065-0.855c-0.415-0.215-0.877-0.322-1.387-0.322
			c-0.54,0-1.02,0.112-1.44,0.337c-0.42,0.225-0.775,0.518-1.065,0.877s-0.512,0.772-0.667,1.237
			C176.945,5.151,176.868,5.624,176.868,6.104z"/>
	</g>
	<g>
		<path d="M206.106,6.029c0-0.64,0.115-1.277,0.345-1.913c0.23-0.635,0.567-1.205,1.012-1.71s0.988-0.913,1.627-1.223
			c0.64-0.31,1.365-0.465,2.175-0.465c0.97,0,1.8,0.215,2.49,0.645c0.69,0.43,1.21,0.99,1.56,1.68l-1.32,0.885
			c-0.15-0.32-0.33-0.59-0.54-0.81c-0.21-0.22-0.44-0.395-0.69-0.525s-0.51-0.223-0.78-0.277c-0.27-0.055-0.53-0.083-0.78-0.083
			c-0.56,0-1.05,0.112-1.47,0.337c-0.42,0.225-0.772,0.522-1.057,0.893c-0.285,0.37-0.5,0.785-0.645,1.245
			c-0.145,0.46-0.218,0.92-0.218,1.38c0,0.52,0.085,1.015,0.255,1.485c0.17,0.47,0.407,0.885,0.712,1.245
			c0.305,0.36,0.667,0.647,1.087,0.862c0.42,0.215,0.88,0.323,1.38,0.323c0.26,0,0.527-0.033,0.803-0.098
			c0.275-0.065,0.54-0.17,0.795-0.315s0.49-0.328,0.705-0.547c0.215-0.22,0.392-0.485,0.532-0.795l1.395,0.795
			c-0.17,0.4-0.41,0.752-0.72,1.057c-0.31,0.305-0.66,0.562-1.05,0.772c-0.39,0.21-0.802,0.37-1.237,0.48
			c-0.435,0.11-0.863,0.165-1.283,0.165c-0.75,0-1.435-0.16-2.055-0.48c-0.62-0.32-1.155-0.737-1.605-1.252
			c-0.45-0.515-0.8-1.1-1.05-1.755C206.231,7.377,206.106,6.709,206.106,6.029z"/>
	</g>
	<g>
		<path d="M180.258,41.17c-0.76,0-1.453-0.152-2.078-0.458s-1.163-0.71-1.612-1.215c-0.45-0.505-0.798-1.082-1.042-1.732
			c-0.245-0.65-0.368-1.315-0.368-1.995c0-0.71,0.13-1.39,0.39-2.04c0.26-0.65,0.617-1.225,1.072-1.725s0.995-0.897,1.62-1.193
			c0.625-0.294,1.308-0.442,2.047-0.442c0.76,0,1.453,0.158,2.078,0.473s1.16,0.728,1.605,1.237c0.445,0.51,0.79,1.087,1.035,1.732
			c0.245,0.645,0.368,1.303,0.368,1.973c0,0.71-0.128,1.39-0.383,2.04c-0.255,0.65-0.613,1.223-1.072,1.717
			c-0.46,0.495-1.003,0.891-1.627,1.185C181.665,41.023,180.988,41.17,180.258,41.17z M176.868,35.77c0,0.5,0.08,0.985,0.24,1.455
			c0.16,0.47,0.387,0.885,0.683,1.245c0.294,0.36,0.652,0.647,1.072,0.862c0.42,0.215,0.89,0.323,1.41,0.323
			c0.54,0,1.017-0.113,1.432-0.337c0.415-0.225,0.768-0.522,1.058-0.893s0.51-0.785,0.66-1.245s0.225-0.93,0.225-1.41
			c0-0.51-0.08-0.997-0.24-1.462c-0.16-0.465-0.388-0.875-0.683-1.23s-0.65-0.64-1.065-0.855c-0.415-0.215-0.877-0.322-1.387-0.322
			c-0.54,0-1.02,0.112-1.44,0.337c-0.42,0.225-0.775,0.518-1.065,0.877s-0.512,0.772-0.667,1.237
			C176.945,34.818,176.868,35.29,176.868,35.77z"/>
	</g>
	<g>
		<path d="M206.106,35.695c0-0.64,0.115-1.277,0.345-1.913c0.23-0.635,0.567-1.205,1.012-1.71s0.988-0.913,1.627-1.223
			c0.64-0.31,1.365-0.465,2.175-0.465c0.97,0,1.8,0.215,2.49,0.645c0.69,0.43,1.21,0.99,1.56,1.68l-1.32,0.885
			c-0.15-0.32-0.33-0.59-0.54-0.81c-0.21-0.22-0.44-0.395-0.69-0.525s-0.51-0.223-0.78-0.277c-0.27-0.055-0.53-0.083-0.78-0.083
			c-0.56,0-1.05,0.112-1.47,0.337c-0.42,0.225-0.772,0.522-1.057,0.893c-0.285,0.37-0.5,0.785-0.645,1.245
			c-0.145,0.46-0.218,0.92-0.218,1.38c0,0.52,0.085,1.015,0.255,1.485c0.17,0.47,0.407,0.885,0.712,1.245
			c0.305,0.36,0.667,0.647,1.087,0.862c0.42,0.215,0.88,0.323,1.38,0.323c0.26,0,0.527-0.033,0.803-0.098
			c0.275-0.065,0.54-0.17,0.795-0.315s0.49-0.328,0.705-0.547c0.215-0.22,0.392-0.485,0.532-0.795l1.395,0.795
			c-0.17,0.4-0.41,0.752-0.72,1.057c-0.31,0.305-0.66,0.562-1.05,0.772c-0.39,0.21-0.802,0.37-1.237,0.48
			c-0.435,0.11-0.863,0.165-1.283,0.165c-0.75,0-1.435-0.16-2.055-0.48c-0.62-0.32-1.155-0.737-1.605-1.252
			c-0.45-0.515-0.8-1.1-1.05-1.755C206.231,37.043,206.106,36.376,206.106,35.695z"/>
	</g>
	<g>
		<path d="M180.258,72.17c-0.76,0-1.453-0.152-2.078-0.458s-1.163-0.71-1.612-1.215c-0.45-0.505-0.798-1.082-1.042-1.732
			c-0.245-0.65-0.368-1.315-0.368-1.995c0-0.71,0.13-1.39,0.39-2.04c0.26-0.65,0.617-1.225,1.072-1.725s0.995-0.897,1.62-1.193
			c0.625-0.294,1.308-0.442,2.047-0.442c0.76,0,1.453,0.158,2.078,0.473s1.16,0.728,1.605,1.237c0.445,0.51,0.79,1.087,1.035,1.732
			c0.245,0.645,0.368,1.303,0.368,1.973c0,0.71-0.128,1.39-0.383,2.04c-0.255,0.65-0.613,1.223-1.072,1.717
			c-0.46,0.495-1.003,0.891-1.627,1.185C181.665,72.023,180.988,72.17,180.258,72.17z M176.868,66.77c0,0.5,0.08,0.985,0.24,1.455
			c0.16,0.47,0.387,0.885,0.683,1.245c0.294,0.36,0.652,0.647,1.072,0.862c0.42,0.215,0.89,0.323,1.41,0.323
			c0.54,0,1.017-0.113,1.432-0.337c0.415-0.225,0.768-0.522,1.058-0.893s0.51-0.785,0.66-1.245s0.225-0.93,0.225-1.41
			c0-0.51-0.08-0.997-0.24-1.462c-0.16-0.465-0.388-0.875-0.683-1.23s-0.65-0.64-1.065-0.855c-0.415-0.215-0.877-0.322-1.387-0.322
			c-0.54,0-1.02,0.112-1.44,0.337c-0.42,0.225-0.775,0.518-1.065,0.877s-0.512,0.772-0.667,1.237
			C176.945,65.818,176.868,66.29,176.868,66.77z"/>
	</g>
	<g>
		<path d="M206.106,66.695c0-0.64,0.115-1.277,0.345-1.913c0.23-0.635,0.567-1.205,1.012-1.71s0.988-0.913,1.627-1.223
			c0.64-0.31,1.365-0.465,2.175-0.465c0.97,0,1.8,0.215,2.49,0.645c0.69,0.43,1.21,0.99,1.56,1.68l-1.32,0.885
			c-0.15-0.32-0.33-0.59-0.54-0.81c-0.21-0.22-0.44-0.395-0.69-0.525s-0.51-0.223-0.78-0.277c-0.27-0.055-0.53-0.083-0.78-0.083
			c-0.56,0-1.05,0.112-1.47,0.337c-0.42,0.225-0.772,0.522-1.057,0.893c-0.285,0.37-0.5,0.785-0.645,1.245
			c-0.145,0.46-0.218,0.92-0.218,1.38c0,0.52,0.085,1.015,0.255,1.485c0.17,0.47,0.407,0.885,0.712,1.245
			c0.305,0.36,0.667,0.647,1.087,0.862c0.42,0.215,0.88,0.323,1.38,0.323c0.26,0,0.527-0.033,0.803-0.098
			c0.275-0.065,0.54-0.17,0.795-0.315s0.49-0.328,0.705-0.547c0.215-0.22,0.392-0.485,0.532-0.795l1.395,0.795
			c-0.17,0.4-0.41,0.752-0.72,1.057c-0.31,0.305-0.66,0.562-1.05,0.772c-0.39,0.21-0.802,0.37-1.237,0.48
			c-0.435,0.11-0.863,0.165-1.283,0.165c-0.75,0-1.435-0.16-2.055-0.48c-0.62-0.32-1.155-0.737-1.605-1.252
			c-0.45-0.515-0.8-1.1-1.05-1.755C206.231,68.043,206.106,67.376,206.106,66.695z"/>
	</g>
	<g>
		<path d="M173.433,122.779v10.65h-1.695v-4.695h-5.37v4.695h-1.68v-10.65h1.68v4.455h5.37v-4.455H173.433z"/>
		<path d="M180.258,133.504c-0.76,0-1.453-0.152-2.078-0.458s-1.163-0.71-1.612-1.215c-0.45-0.505-0.798-1.082-1.042-1.732
			c-0.245-0.65-0.368-1.315-0.368-1.995c0-0.71,0.13-1.39,0.39-2.04c0.26-0.65,0.617-1.225,1.072-1.725s0.995-0.897,1.62-1.193
			c0.625-0.294,1.308-0.442,2.047-0.442c0.76,0,1.453,0.158,2.078,0.473s1.16,0.728,1.605,1.237c0.445,0.51,0.79,1.087,1.035,1.732
			c0.245,0.645,0.368,1.303,0.368,1.973c0,0.71-0.128,1.39-0.383,2.04c-0.255,0.65-0.613,1.223-1.072,1.717
			c-0.46,0.495-1.003,0.891-1.627,1.185C181.665,133.357,180.988,133.504,180.258,133.504z M176.868,128.104
			c0,0.5,0.08,0.985,0.24,1.455c0.16,0.47,0.387,0.885,0.683,1.245c0.294,0.36,0.652,0.647,1.072,0.862
			c0.42,0.215,0.89,0.323,1.41,0.323c0.54,0,1.017-0.113,1.432-0.337c0.415-0.225,0.768-0.522,1.058-0.893s0.51-0.785,0.66-1.245
			s0.225-0.93,0.225-1.41c0-0.51-0.08-0.997-0.24-1.462c-0.16-0.465-0.388-0.875-0.683-1.23s-0.65-0.64-1.065-0.855
			c-0.415-0.215-0.877-0.322-1.387-0.322c-0.54,0-1.02,0.112-1.44,0.337c-0.42,0.225-0.775,0.518-1.065,0.877
			s-0.512,0.772-0.667,1.237C176.945,127.151,176.868,127.624,176.868,128.104z"/>
	</g>
	<g>
		<path d="M247.046,122.779v10.65h-1.695v-4.695h-5.37v4.695h-1.68v-10.65h1.68v4.455h5.37v-4.455H247.046z"/>
	</g>
	<g>
		<path d="M242.591,56.504c-0.76,0-1.452-0.152-2.077-0.458s-1.163-0.71-1.612-1.215c-0.45-0.505-0.798-1.082-1.043-1.732
			c-0.245-0.65-0.367-1.315-0.367-1.995c0-0.71,0.13-1.39,0.39-2.04c0.26-0.65,0.617-1.225,1.072-1.725s0.995-0.897,1.62-1.193
			c0.625-0.294,1.308-0.442,2.048-0.442c0.76,0,1.452,0.158,2.077,0.473s1.16,0.728,1.605,1.237c0.444,0.51,0.79,1.087,1.035,1.732
			c0.244,0.645,0.367,1.303,0.367,1.973c0,0.71-0.128,1.39-0.383,2.04c-0.255,0.65-0.612,1.223-1.072,1.717
			c-0.46,0.495-1.003,0.891-1.627,1.185C243.998,56.357,243.321,56.504,242.591,56.504z M239.201,51.104
			c0,0.5,0.08,0.985,0.24,1.455c0.159,0.47,0.387,0.885,0.683,1.245c0.294,0.36,0.652,0.647,1.072,0.862
			c0.42,0.215,0.89,0.323,1.41,0.323c0.54,0,1.017-0.113,1.432-0.337c0.415-0.225,0.768-0.522,1.058-0.893s0.511-0.785,0.66-1.245
			c0.15-0.46,0.226-0.93,0.226-1.41c0-0.51-0.08-0.997-0.24-1.462c-0.16-0.465-0.388-0.875-0.683-1.23s-0.65-0.64-1.065-0.855
			c-0.415-0.215-0.877-0.322-1.387-0.322c-0.54,0-1.021,0.112-1.44,0.337s-0.775,0.518-1.065,0.877s-0.512,0.772-0.667,1.237
			C239.278,50.151,239.201,50.624,239.201,51.104z"/>
	</g>
	<g>
		<path d="M206.106,128.029c0-0.64,0.115-1.277,0.345-1.913c0.23-0.635,0.567-1.205,1.012-1.71s0.988-0.913,1.627-1.223
			c0.64-0.31,1.365-0.465,2.175-0.465c0.97,0,1.8,0.215,2.49,0.645c0.69,0.43,1.21,0.99,1.56,1.68l-1.32,0.885
			c-0.15-0.32-0.33-0.59-0.54-0.81c-0.21-0.22-0.44-0.395-0.69-0.525s-0.51-0.223-0.78-0.277c-0.27-0.055-0.53-0.083-0.78-0.083
			c-0.56,0-1.05,0.112-1.47,0.337c-0.42,0.225-0.772,0.522-1.057,0.893c-0.285,0.37-0.5,0.785-0.645,1.245
			c-0.145,0.46-0.218,0.92-0.218,1.38c0,0.52,0.085,1.015,0.255,1.485c0.17,0.47,0.407,0.885,0.712,1.245
			c0.305,0.36,0.667,0.647,1.087,0.862c0.42,0.215,0.88,0.323,1.38,0.323c0.26,0,0.527-0.033,0.803-0.098
			c0.275-0.065,0.54-0.17,0.795-0.315s0.49-0.328,0.705-0.547c0.215-0.22,0.392-0.485,0.532-0.795l1.395,0.795
			c-0.17,0.4-0.41,0.752-0.72,1.057c-0.31,0.305-0.66,0.562-1.05,0.772c-0.39,0.21-0.802,0.37-1.237,0.48
			c-0.435,0.11-0.863,0.165-1.283,0.165c-0.75,0-1.435-0.16-2.055-0.48c-0.62-0.32-1.155-0.737-1.605-1.252
			c-0.45-0.515-0.8-1.1-1.05-1.755C206.231,129.377,206.106,128.709,206.106,128.029z"/>
	</g>
	<g>
		<path d="M206.106,158.696c0-0.64,0.115-1.277,0.345-1.912c0.23-0.635,0.567-1.205,1.012-1.71s0.988-0.913,1.627-1.223
			c0.64-0.31,1.365-0.465,2.175-0.465c0.97,0,1.8,0.215,2.49,0.645c0.69,0.431,1.21,0.99,1.56,1.681l-1.32,0.885
			c-0.15-0.32-0.33-0.59-0.54-0.811c-0.21-0.22-0.44-0.395-0.69-0.524s-0.51-0.223-0.78-0.277c-0.27-0.056-0.53-0.083-0.78-0.083
			c-0.56,0-1.05,0.112-1.47,0.338c-0.42,0.225-0.772,0.522-1.057,0.893c-0.285,0.37-0.5,0.785-0.645,1.244
			c-0.145,0.461-0.218,0.921-0.218,1.381c0,0.52,0.085,1.015,0.255,1.484c0.17,0.471,0.407,0.885,0.712,1.245
			c0.305,0.36,0.667,0.647,1.087,0.862c0.42,0.216,0.88,0.323,1.38,0.323c0.26,0,0.527-0.033,0.803-0.098
			c0.275-0.065,0.54-0.17,0.795-0.315c0.255-0.145,0.49-0.327,0.705-0.547c0.215-0.221,0.392-0.485,0.532-0.796l1.395,0.796
			c-0.17,0.399-0.41,0.752-0.72,1.057c-0.31,0.306-0.66,0.562-1.05,0.772c-0.39,0.21-0.802,0.37-1.237,0.48
			s-0.863,0.165-1.283,0.165c-0.75,0-1.435-0.16-2.055-0.48c-0.62-0.319-1.155-0.737-1.605-1.252c-0.45-0.515-0.8-1.1-1.05-1.755
			S206.106,159.377,206.106,158.696z"/>
		<path d="M225.785,153.446v10.65h-1.694v-4.695h-5.37v4.695h-1.68v-10.65h1.68v4.455h5.37v-4.455H225.785z"/>
		<path d="M226.585,169.091c0-0.245,0.021-0.473,0.062-0.683s0.114-0.406,0.219-0.59s0.248-0.358,0.429-0.524
			c0.181-0.167,0.414-0.328,0.699-0.485c0.204-0.111,0.396-0.213,0.577-0.307c0.181-0.093,0.34-0.185,0.477-0.275
			c0.137-0.09,0.246-0.187,0.328-0.288c0.082-0.103,0.122-0.221,0.122-0.354c0-0.187-0.08-0.354-0.24-0.503
			s-0.392-0.223-0.695-0.223c-0.157,0-0.302,0.021-0.433,0.065s-0.251,0.099-0.358,0.166c-0.108,0.067-0.203,0.142-0.284,0.223
			c-0.082,0.082-0.154,0.161-0.219,0.236l-0.612-0.708c0.059-0.064,0.15-0.145,0.275-0.241c0.125-0.096,0.277-0.188,0.455-0.275
			c0.178-0.087,0.38-0.161,0.607-0.223s0.476-0.092,0.743-0.092c0.28,0,0.532,0.036,0.757,0.109s0.414,0.174,0.568,0.302
			s0.272,0.281,0.354,0.459c0.081,0.178,0.122,0.369,0.122,0.573c0,0.215-0.044,0.407-0.131,0.577
			c-0.088,0.169-0.195,0.317-0.324,0.445c-0.128,0.129-0.268,0.238-0.419,0.328c-0.152,0.091-0.292,0.168-0.42,0.231
			c-0.123,0.059-0.262,0.127-0.416,0.206c-0.154,0.078-0.305,0.169-0.45,0.271c-0.146,0.103-0.276,0.212-0.394,0.328
			c-0.116,0.117-0.198,0.245-0.245,0.385h2.896v0.866H226.585z"/>
		<path d="M236.225,164.171c-0.761,0-1.453-0.152-2.078-0.458c-0.625-0.305-1.162-0.71-1.612-1.215s-0.798-1.082-1.042-1.732
			c-0.245-0.65-0.368-1.315-0.368-1.995c0-0.71,0.13-1.39,0.391-2.04c0.26-0.65,0.617-1.225,1.072-1.725s0.995-0.897,1.62-1.193
			c0.625-0.294,1.308-0.442,2.047-0.442c0.761,0,1.453,0.158,2.078,0.473c0.625,0.315,1.16,0.728,1.604,1.237
			c0.445,0.511,0.79,1.088,1.035,1.732c0.245,0.646,0.368,1.303,0.368,1.973c0,0.711-0.128,1.391-0.383,2.04
			c-0.255,0.65-0.613,1.223-1.072,1.718c-0.461,0.495-1.003,0.891-1.628,1.185C237.632,164.024,236.954,164.171,236.225,164.171z
			 M232.834,158.771c0,0.5,0.08,0.985,0.24,1.455s0.388,0.885,0.683,1.245c0.295,0.359,0.652,0.647,1.072,0.862
			s0.891,0.322,1.41,0.322c0.54,0,1.018-0.112,1.433-0.337c0.415-0.226,0.768-0.522,1.058-0.893s0.51-0.785,0.66-1.245
			c0.149-0.46,0.225-0.931,0.225-1.41c0-0.51-0.08-0.997-0.24-1.463c-0.16-0.465-0.388-0.875-0.683-1.229
			c-0.295-0.355-0.649-0.64-1.064-0.855c-0.415-0.215-0.878-0.322-1.388-0.322c-0.54,0-1.02,0.112-1.439,0.338
			c-0.421,0.225-0.775,0.518-1.065,0.877c-0.29,0.36-0.513,0.772-0.668,1.237C232.912,157.819,232.834,158.291,232.834,158.771z"/>
		<path d="M251.824,153.446v10.65h-1.695v-4.695h-5.37v4.695h-1.68v-10.65h1.68v4.455h5.37v-4.455H251.824z"/>
	</g>
	<g>
		<path d="M184.713,91.779v10.65h-1.695v-4.695h-5.37v4.695h-1.68v-10.65h1.68v4.455h5.37v-4.455H184.713z"/>
	</g>
	<g>
		<path d="M206.106,97.029c0-0.64,0.115-1.277,0.345-1.913c0.23-0.635,0.567-1.205,1.012-1.71s0.988-0.913,1.627-1.223
			c0.64-0.31,1.365-0.465,2.175-0.465c0.97,0,1.8,0.215,2.49,0.645c0.69,0.43,1.21,0.99,1.56,1.68l-1.32,0.885
			c-0.15-0.32-0.33-0.59-0.54-0.81c-0.21-0.22-0.44-0.395-0.69-0.525s-0.51-0.223-0.78-0.277c-0.27-0.055-0.53-0.083-0.78-0.083
			c-0.56,0-1.05,0.112-1.47,0.337c-0.42,0.225-0.772,0.522-1.057,0.893c-0.285,0.37-0.5,0.785-0.645,1.245
			c-0.145,0.46-0.218,0.92-0.218,1.38c0,0.52,0.085,1.015,0.255,1.485c0.17,0.47,0.407,0.885,0.712,1.245
			c0.305,0.36,0.667,0.647,1.087,0.862c0.42,0.215,0.88,0.323,1.38,0.323c0.26,0,0.527-0.033,0.803-0.098
			c0.275-0.065,0.54-0.17,0.795-0.315s0.49-0.328,0.705-0.547c0.215-0.22,0.392-0.485,0.532-0.795l1.395,0.795
			c-0.17,0.4-0.41,0.752-0.72,1.057c-0.31,0.305-0.66,0.562-1.05,0.772c-0.39,0.21-0.802,0.37-1.237,0.48
			c-0.435,0.11-0.863,0.165-1.283,0.165c-0.75,0-1.435-0.16-2.055-0.48c-0.62-0.32-1.155-0.737-1.605-1.252
			c-0.45-0.515-0.8-1.1-1.05-1.755C206.231,98.377,206.106,97.709,206.106,97.029z"/>
	</g>
	<g>
		<path d="M359.22,6.029c0-0.64,0.114-1.277,0.345-1.913c0.23-0.635,0.567-1.205,1.013-1.71c0.444-0.505,0.987-0.913,1.627-1.223
			c0.641-0.31,1.365-0.465,2.176-0.465c0.97,0,1.8,0.215,2.489,0.645c0.69,0.43,1.21,0.99,1.561,1.68l-1.32,0.885
			c-0.149-0.32-0.33-0.59-0.54-0.81c-0.21-0.22-0.439-0.395-0.689-0.525s-0.511-0.223-0.78-0.277
			c-0.271-0.055-0.53-0.083-0.78-0.083c-0.56,0-1.05,0.112-1.47,0.337s-0.772,0.522-1.058,0.893s-0.5,0.785-0.645,1.245
			c-0.146,0.46-0.218,0.92-0.218,1.38c0,0.52,0.085,1.015,0.255,1.485c0.17,0.47,0.407,0.885,0.713,1.245
			c0.305,0.36,0.667,0.647,1.087,0.862c0.42,0.215,0.88,0.323,1.38,0.323c0.26,0,0.527-0.033,0.803-0.098s0.54-0.17,0.795-0.315
			s0.49-0.328,0.705-0.547c0.215-0.22,0.393-0.485,0.532-0.795l1.396,0.795c-0.17,0.4-0.41,0.752-0.72,1.057
			c-0.311,0.305-0.66,0.562-1.051,0.772c-0.39,0.21-0.802,0.37-1.237,0.48c-0.435,0.11-0.862,0.165-1.282,0.165
			c-0.75,0-1.436-0.16-2.055-0.48c-0.62-0.32-1.155-0.737-1.605-1.252c-0.45-0.515-0.8-1.1-1.05-1.755
			C359.345,7.377,359.22,6.709,359.22,6.029z"/>
		<path d="M374.475,11.504c-0.761,0-1.453-0.152-2.078-0.458s-1.162-0.71-1.612-1.215c-0.45-0.505-0.798-1.082-1.042-1.732
			c-0.245-0.65-0.368-1.315-0.368-1.995c0-0.71,0.13-1.39,0.391-2.04c0.26-0.65,0.617-1.225,1.072-1.725s0.995-0.897,1.62-1.193
			c0.625-0.294,1.308-0.442,2.047-0.442c0.761,0,1.453,0.158,2.078,0.473s1.16,0.728,1.604,1.237c0.445,0.51,0.79,1.087,1.035,1.732
			s0.368,1.303,0.368,1.973c0,0.71-0.128,1.39-0.383,2.04c-0.255,0.65-0.613,1.223-1.072,1.717
			c-0.461,0.495-1.003,0.891-1.628,1.185C375.882,11.357,375.204,11.504,374.475,11.504z M371.084,6.104
			c0,0.5,0.08,0.985,0.24,1.455c0.16,0.47,0.388,0.885,0.683,1.245s0.652,0.647,1.072,0.862c0.42,0.215,0.891,0.323,1.41,0.323
			c0.54,0,1.018-0.113,1.433-0.337c0.415-0.225,0.768-0.522,1.058-0.893s0.51-0.785,0.66-1.245c0.149-0.46,0.225-0.93,0.225-1.41
			c0-0.51-0.08-0.997-0.24-1.462c-0.16-0.465-0.388-0.875-0.683-1.23s-0.649-0.64-1.064-0.855c-0.415-0.215-0.878-0.322-1.388-0.322
			c-0.54,0-1.02,0.112-1.439,0.337c-0.421,0.225-0.775,0.518-1.065,0.877s-0.513,0.772-0.668,1.237
			C371.162,5.151,371.084,5.624,371.084,6.104z"/>
		<path d="M385.754,11.504c-0.76,0-1.452-0.152-2.077-0.458s-1.163-0.71-1.612-1.215c-0.45-0.505-0.798-1.082-1.043-1.732
			c-0.245-0.65-0.367-1.315-0.367-1.995c0-0.71,0.13-1.39,0.39-2.04c0.26-0.65,0.617-1.225,1.072-1.725s0.995-0.897,1.62-1.193
			c0.625-0.294,1.308-0.442,2.048-0.442c0.76,0,1.452,0.158,2.077,0.473s1.16,0.728,1.605,1.237c0.444,0.51,0.79,1.087,1.035,1.732
			c0.244,0.645,0.367,1.303,0.367,1.973c0,0.71-0.128,1.39-0.383,2.04c-0.255,0.65-0.612,1.223-1.072,1.717
			c-0.46,0.495-1.003,0.891-1.627,1.185C387.161,11.357,386.484,11.504,385.754,11.504z M382.364,6.104c0,0.5,0.08,0.985,0.24,1.455
			c0.159,0.47,0.387,0.885,0.683,1.245c0.294,0.36,0.652,0.647,1.072,0.862c0.42,0.215,0.89,0.323,1.41,0.323
			c0.54,0,1.017-0.113,1.432-0.337c0.415-0.225,0.768-0.522,1.058-0.893s0.511-0.785,0.66-1.245c0.15-0.46,0.226-0.93,0.226-1.41
			c0-0.51-0.08-0.997-0.24-1.462c-0.16-0.465-0.388-0.875-0.683-1.23s-0.65-0.64-1.065-0.855c-0.415-0.215-0.877-0.322-1.387-0.322
			c-0.54,0-1.021,0.112-1.44,0.337s-0.775,0.518-1.065,0.877s-0.512,0.772-0.667,1.237C382.442,5.151,382.364,5.624,382.364,6.104z"
			/>
		<path d="M401.354,0.779v10.65h-1.694V6.734h-5.37v4.695h-1.68V0.779h1.68v4.455h5.37V0.779H401.354z"/>
	</g>
	<g>
		<path d="M333.371,41.17c-0.76,0-1.452-0.152-2.077-0.458s-1.163-0.71-1.612-1.215c-0.45-0.505-0.798-1.082-1.043-1.732
			c-0.245-0.65-0.367-1.315-0.367-1.995c0-0.71,0.13-1.39,0.39-2.04c0.26-0.65,0.617-1.225,1.072-1.725s0.995-0.897,1.62-1.193
			c0.625-0.294,1.308-0.442,2.048-0.442c0.76,0,1.452,0.158,2.077,0.473s1.16,0.728,1.605,1.237c0.444,0.51,0.79,1.087,1.035,1.732
			c0.244,0.645,0.367,1.303,0.367,1.973c0,0.71-0.128,1.39-0.383,2.04c-0.255,0.65-0.612,1.223-1.072,1.717
			c-0.46,0.495-1.003,0.891-1.627,1.185C334.778,41.023,334.102,41.17,333.371,41.17z M329.982,35.77c0,0.5,0.08,0.985,0.24,1.455
			c0.159,0.47,0.387,0.885,0.683,1.245c0.294,0.36,0.652,0.647,1.072,0.862c0.42,0.215,0.89,0.323,1.41,0.323
			c0.54,0,1.017-0.113,1.432-0.337c0.415-0.225,0.768-0.522,1.058-0.893s0.511-0.785,0.66-1.245c0.15-0.46,0.226-0.93,0.226-1.41
			c0-0.51-0.08-0.997-0.24-1.462c-0.16-0.465-0.388-0.875-0.683-1.23s-0.65-0.64-1.065-0.855c-0.415-0.215-0.877-0.322-1.387-0.322
			c-0.54,0-1.021,0.112-1.44,0.337s-0.775,0.518-1.065,0.877s-0.512,0.772-0.667,1.237C330.059,34.818,329.982,35.29,329.982,35.77z
			"/>
	</g>
	<g>
		<path d="M359.22,35.695c0-0.64,0.114-1.277,0.345-1.913c0.23-0.635,0.567-1.205,1.013-1.71c0.444-0.505,0.987-0.913,1.627-1.223
			c0.641-0.31,1.365-0.465,2.176-0.465c0.97,0,1.8,0.215,2.489,0.645c0.69,0.43,1.21,0.99,1.561,1.68l-1.32,0.885
			c-0.149-0.32-0.33-0.59-0.54-0.81c-0.21-0.22-0.439-0.395-0.689-0.525s-0.511-0.223-0.78-0.277
			c-0.271-0.055-0.53-0.083-0.78-0.083c-0.56,0-1.05,0.112-1.47,0.337s-0.772,0.522-1.058,0.893s-0.5,0.785-0.645,1.245
			c-0.146,0.46-0.218,0.92-0.218,1.38c0,0.52,0.085,1.015,0.255,1.485c0.17,0.47,0.407,0.885,0.713,1.245
			c0.305,0.36,0.667,0.647,1.087,0.862c0.42,0.215,0.88,0.323,1.38,0.323c0.26,0,0.527-0.033,0.803-0.098s0.54-0.17,0.795-0.315
			s0.49-0.328,0.705-0.547c0.215-0.22,0.393-0.485,0.532-0.795l1.396,0.795c-0.17,0.4-0.41,0.752-0.72,1.057
			c-0.311,0.305-0.66,0.562-1.051,0.772c-0.39,0.21-0.802,0.37-1.237,0.48c-0.435,0.11-0.862,0.165-1.282,0.165
			c-0.75,0-1.436-0.16-2.055-0.48c-0.62-0.32-1.155-0.737-1.605-1.252c-0.45-0.515-0.8-1.1-1.05-1.755
			C359.345,37.043,359.22,36.376,359.22,35.695z"/>
	</g>
	<g>
		<path d="M333.371,72.17c-0.76,0-1.452-0.152-2.077-0.458s-1.163-0.71-1.612-1.215c-0.45-0.505-0.798-1.082-1.043-1.732
			c-0.245-0.65-0.367-1.315-0.367-1.995c0-0.71,0.13-1.39,0.39-2.04c0.26-0.65,0.617-1.225,1.072-1.725s0.995-0.897,1.62-1.193
			c0.625-0.294,1.308-0.442,2.048-0.442c0.76,0,1.452,0.158,2.077,0.473s1.16,0.728,1.605,1.237c0.444,0.51,0.79,1.087,1.035,1.732
			c0.244,0.645,0.367,1.303,0.367,1.973c0,0.71-0.128,1.39-0.383,2.04c-0.255,0.65-0.612,1.223-1.072,1.717
			c-0.46,0.495-1.003,0.891-1.627,1.185C334.778,72.023,334.102,72.17,333.371,72.17z M329.982,66.77c0,0.5,0.08,0.985,0.24,1.455
			c0.159,0.47,0.387,0.885,0.683,1.245c0.294,0.36,0.652,0.647,1.072,0.862c0.42,0.215,0.89,0.323,1.41,0.323
			c0.54,0,1.017-0.113,1.432-0.337c0.415-0.225,0.768-0.522,1.058-0.893s0.511-0.785,0.66-1.245c0.15-0.46,0.226-0.93,0.226-1.41
			c0-0.51-0.08-0.997-0.24-1.462c-0.16-0.465-0.388-0.875-0.683-1.23s-0.65-0.64-1.065-0.855c-0.415-0.215-0.877-0.322-1.387-0.322
			c-0.54,0-1.021,0.112-1.44,0.337s-0.775,0.518-1.065,0.877s-0.512,0.772-0.667,1.237C330.059,65.818,329.982,66.29,329.982,66.77z
			"/>
	</g>
	<g>
		<path d="M359.22,66.695c0-0.64,0.114-1.277,0.345-1.913c0.23-0.635,0.567-1.205,1.013-1.71c0.444-0.505,0.987-0.913,1.627-1.223
			c0.641-0.31,1.365-0.465,2.176-0.465c0.97,0,1.8,0.215,2.489,0.645c0.69,0.43,1.21,0.99,1.561,1.68l-1.32,0.885
			c-0.149-0.32-0.33-0.59-0.54-0.81c-0.21-0.22-0.439-0.395-0.689-0.525s-0.511-0.223-0.78-0.277
			c-0.271-0.055-0.53-0.083-0.78-0.083c-0.56,0-1.05,0.112-1.47,0.337s-0.772,0.522-1.058,0.893s-0.5,0.785-0.645,1.245
			c-0.146,0.46-0.218,0.92-0.218,1.38c0,0.52,0.085,1.015,0.255,1.485c0.17,0.47,0.407,0.885,0.713,1.245
			c0.305,0.36,0.667,0.647,1.087,0.862c0.42,0.215,0.88,0.323,1.38,0.323c0.26,0,0.527-0.033,0.803-0.098s0.54-0.17,0.795-0.315
			s0.49-0.328,0.705-0.547c0.215-0.22,0.393-0.485,0.532-0.795l1.396,0.795c-0.17,0.4-0.41,0.752-0.72,1.057
			c-0.311,0.305-0.66,0.562-1.051,0.772c-0.39,0.21-0.802,0.37-1.237,0.48c-0.435,0.11-0.862,0.165-1.282,0.165
			c-0.75,0-1.436-0.16-2.055-0.48c-0.62-0.32-1.155-0.737-1.605-1.252c-0.45-0.515-0.8-1.1-1.05-1.755
			C359.345,68.043,359.22,67.376,359.22,66.695z"/>
	</g>
	<g>
		<path d="M326.546,122.779v10.65h-1.694v-4.695h-5.37v4.695h-1.68v-10.65h1.68v4.455h5.37v-4.455H326.546z"/>
		<path d="M333.371,133.504c-0.76,0-1.452-0.152-2.077-0.458s-1.163-0.71-1.612-1.215c-0.45-0.505-0.798-1.082-1.043-1.732
			c-0.245-0.65-0.367-1.315-0.367-1.995c0-0.71,0.13-1.39,0.39-2.04c0.26-0.65,0.617-1.225,1.072-1.725s0.995-0.897,1.62-1.193
			c0.625-0.294,1.308-0.442,2.048-0.442c0.76,0,1.452,0.158,2.077,0.473s1.16,0.728,1.605,1.237c0.444,0.51,0.79,1.087,1.035,1.732
			c0.244,0.645,0.367,1.303,0.367,1.973c0,0.71-0.128,1.39-0.383,2.04c-0.255,0.65-0.612,1.223-1.072,1.717
			c-0.46,0.495-1.003,0.891-1.627,1.185C334.778,133.357,334.102,133.504,333.371,133.504z M329.982,128.104
			c0,0.5,0.08,0.985,0.24,1.455c0.159,0.47,0.387,0.885,0.683,1.245c0.294,0.36,0.652,0.647,1.072,0.862
			c0.42,0.215,0.89,0.323,1.41,0.323c0.54,0,1.017-0.113,1.432-0.337c0.415-0.225,0.768-0.522,1.058-0.893s0.511-0.785,0.66-1.245
			c0.15-0.46,0.226-0.93,0.226-1.41c0-0.51-0.08-0.997-0.24-1.462c-0.16-0.465-0.388-0.875-0.683-1.23s-0.65-0.64-1.065-0.855
			c-0.415-0.215-0.877-0.322-1.387-0.322c-0.54,0-1.021,0.112-1.44,0.337s-0.775,0.518-1.065,0.877s-0.512,0.772-0.667,1.237
			C330.059,127.151,329.982,127.624,329.982,128.104z"/>
	</g>
	<g>
		<path d="M400.159,122.779v10.65h-1.694v-4.695h-5.37v4.695h-1.68v-10.65h1.68v4.455h5.37v-4.455H400.159z"/>
	</g>
	<g>
		<path d="M359.22,128.029c0-0.64,0.114-1.277,0.345-1.913c0.23-0.635,0.567-1.205,1.013-1.71c0.444-0.505,0.987-0.913,1.627-1.223
			c0.641-0.31,1.365-0.465,2.176-0.465c0.97,0,1.8,0.215,2.489,0.645c0.69,0.43,1.21,0.99,1.561,1.68l-1.32,0.885
			c-0.149-0.32-0.33-0.59-0.54-0.81c-0.21-0.22-0.439-0.395-0.689-0.525s-0.511-0.223-0.78-0.277
			c-0.271-0.055-0.53-0.083-0.78-0.083c-0.56,0-1.05,0.112-1.47,0.337s-0.772,0.522-1.058,0.893s-0.5,0.785-0.645,1.245
			c-0.146,0.46-0.218,0.92-0.218,1.38c0,0.52,0.085,1.015,0.255,1.485c0.17,0.47,0.407,0.885,0.713,1.245
			c0.305,0.36,0.667,0.647,1.087,0.862c0.42,0.215,0.88,0.323,1.38,0.323c0.26,0,0.527-0.033,0.803-0.098s0.54-0.17,0.795-0.315
			s0.49-0.328,0.705-0.547c0.215-0.22,0.393-0.485,0.532-0.795l1.396,0.795c-0.17,0.4-0.41,0.752-0.72,1.057
			c-0.311,0.305-0.66,0.562-1.051,0.772c-0.39,0.21-0.802,0.37-1.237,0.48c-0.435,0.11-0.862,0.165-1.282,0.165
			c-0.75,0-1.436-0.16-2.055-0.48c-0.62-0.32-1.155-0.737-1.605-1.252c-0.45-0.515-0.8-1.1-1.05-1.755
			C359.345,129.377,359.22,128.709,359.22,128.029z"/>
	</g>
	<g>
		<path d="M359.22,158.696c0-0.64,0.114-1.277,0.345-1.912s0.567-1.205,1.013-1.71c0.444-0.505,0.987-0.913,1.627-1.223
			c0.641-0.31,1.365-0.465,2.176-0.465c0.97,0,1.8,0.215,2.489,0.645c0.69,0.431,1.21,0.99,1.561,1.681l-1.32,0.885
			c-0.149-0.32-0.33-0.59-0.54-0.811c-0.21-0.22-0.439-0.395-0.689-0.524s-0.511-0.223-0.78-0.277
			c-0.271-0.056-0.53-0.083-0.78-0.083c-0.56,0-1.05,0.112-1.47,0.338c-0.42,0.225-0.772,0.522-1.058,0.893s-0.5,0.785-0.645,1.244
			c-0.146,0.461-0.218,0.921-0.218,1.381c0,0.52,0.085,1.015,0.255,1.484c0.17,0.471,0.407,0.885,0.713,1.245
			c0.305,0.36,0.667,0.647,1.087,0.862c0.42,0.216,0.88,0.323,1.38,0.323c0.26,0,0.527-0.033,0.803-0.098
			c0.275-0.065,0.54-0.17,0.795-0.315c0.255-0.145,0.49-0.327,0.705-0.547c0.215-0.221,0.393-0.485,0.532-0.796l1.396,0.796
			c-0.17,0.399-0.41,0.752-0.72,1.057c-0.311,0.306-0.66,0.562-1.051,0.772c-0.39,0.21-0.802,0.37-1.237,0.48
			c-0.435,0.11-0.862,0.165-1.282,0.165c-0.75,0-1.436-0.16-2.055-0.48c-0.62-0.319-1.155-0.737-1.605-1.252s-0.8-1.1-1.05-1.755
			S359.22,159.377,359.22,158.696z"/>
		<path d="M378.9,153.446v10.65h-1.695v-4.695h-5.37v4.695h-1.68v-10.65h1.68v4.455h5.37v-4.455H378.9z"/>
		<path d="M379.699,169.091c0-0.245,0.021-0.473,0.062-0.683c0.04-0.21,0.113-0.406,0.219-0.59c0.104-0.184,0.247-0.358,0.428-0.524
			c0.181-0.167,0.414-0.328,0.7-0.485c0.204-0.111,0.396-0.213,0.577-0.307c0.181-0.093,0.339-0.185,0.477-0.275
			c0.137-0.09,0.246-0.187,0.328-0.288c0.081-0.103,0.122-0.221,0.122-0.354c0-0.187-0.08-0.354-0.24-0.503
			c-0.161-0.148-0.393-0.223-0.695-0.223c-0.157,0-0.302,0.021-0.434,0.065c-0.131,0.044-0.25,0.099-0.358,0.166
			c-0.107,0.067-0.202,0.142-0.284,0.223c-0.081,0.082-0.154,0.161-0.219,0.236l-0.611-0.708c0.058-0.064,0.149-0.145,0.275-0.241
			c0.125-0.096,0.276-0.188,0.454-0.275c0.178-0.087,0.381-0.161,0.608-0.223s0.475-0.092,0.743-0.092
			c0.279,0,0.532,0.036,0.756,0.109c0.225,0.073,0.414,0.174,0.569,0.302c0.154,0.128,0.272,0.281,0.354,0.459
			c0.082,0.178,0.123,0.369,0.123,0.573c0,0.215-0.044,0.407-0.132,0.577c-0.087,0.169-0.195,0.317-0.323,0.445
			c-0.128,0.129-0.269,0.238-0.42,0.328c-0.151,0.091-0.292,0.168-0.42,0.231c-0.122,0.059-0.261,0.127-0.415,0.206
			c-0.154,0.078-0.305,0.169-0.45,0.271c-0.146,0.103-0.277,0.212-0.394,0.328c-0.117,0.117-0.198,0.245-0.245,0.385h2.895v0.866
			H379.699z"/>
		<path d="M389.338,164.171c-0.76,0-1.452-0.152-2.077-0.458c-0.625-0.305-1.163-0.71-1.612-1.215
			c-0.45-0.505-0.798-1.082-1.043-1.732s-0.367-1.315-0.367-1.995c0-0.71,0.13-1.39,0.39-2.04s0.617-1.225,1.072-1.725
			s0.995-0.897,1.62-1.193c0.625-0.294,1.308-0.442,2.048-0.442c0.76,0,1.452,0.158,2.077,0.473c0.625,0.315,1.16,0.728,1.605,1.237
			c0.444,0.511,0.79,1.088,1.035,1.732c0.244,0.646,0.367,1.303,0.367,1.973c0,0.711-0.128,1.391-0.383,2.04
			c-0.255,0.65-0.612,1.223-1.072,1.718s-1.003,0.891-1.627,1.185C390.745,164.024,390.068,164.171,389.338,164.171z
			 M385.948,158.771c0,0.5,0.08,0.985,0.24,1.455c0.159,0.47,0.387,0.885,0.683,1.245c0.294,0.359,0.652,0.647,1.072,0.862
			s0.89,0.322,1.41,0.322c0.54,0,1.017-0.112,1.432-0.337c0.415-0.226,0.768-0.522,1.058-0.893s0.511-0.785,0.66-1.245
			c0.15-0.46,0.226-0.931,0.226-1.41c0-0.51-0.08-0.997-0.24-1.463c-0.16-0.465-0.388-0.875-0.683-1.229
			c-0.295-0.355-0.65-0.64-1.065-0.855c-0.415-0.215-0.877-0.322-1.387-0.322c-0.54,0-1.021,0.112-1.44,0.338
			c-0.42,0.225-0.775,0.518-1.065,0.877c-0.29,0.36-0.512,0.772-0.667,1.237C386.026,157.819,385.948,158.291,385.948,158.771z"/>
		<path d="M404.938,153.446v10.65h-1.694v-4.695h-5.37v4.695h-1.68v-10.65h1.68v4.455h5.37v-4.455H404.938z"/>
	</g>
	<g>
		<path d="M337.826,91.779v10.65h-1.695v-4.695h-5.37v4.695h-1.68v-10.65h1.68v4.455h5.37v-4.455H337.826z"/>
	</g>
	<g>
		<path d="M396.317,102.504c-0.76,0-1.452-0.152-2.077-0.458s-1.163-0.71-1.612-1.215c-0.45-0.505-0.798-1.082-1.043-1.732
			c-0.245-0.65-0.367-1.315-0.367-1.995c0-0.71,0.13-1.39,0.39-2.04c0.26-0.65,0.617-1.225,1.072-1.725s0.995-0.897,1.62-1.193
			c0.625-0.294,1.308-0.442,2.048-0.442c0.76,0,1.452,0.158,2.077,0.473s1.16,0.728,1.605,1.237c0.444,0.51,0.79,1.087,1.035,1.732
			c0.244,0.645,0.367,1.303,0.367,1.973c0,0.71-0.128,1.39-0.383,2.04c-0.255,0.65-0.612,1.223-1.072,1.717
			c-0.46,0.495-1.003,0.891-1.627,1.185C397.724,102.357,397.047,102.504,396.317,102.504z M392.927,97.104
			c0,0.5,0.08,0.985,0.24,1.455c0.159,0.47,0.387,0.885,0.683,1.245c0.294,0.36,0.652,0.647,1.072,0.862
			c0.42,0.215,0.89,0.323,1.41,0.323c0.54,0,1.017-0.113,1.432-0.337c0.415-0.225,0.768-0.522,1.058-0.893s0.511-0.785,0.66-1.245
			c0.15-0.46,0.226-0.93,0.226-1.41c0-0.51-0.08-0.997-0.24-1.462c-0.16-0.465-0.388-0.875-0.683-1.23s-0.65-0.64-1.065-0.855
			c-0.415-0.215-0.877-0.322-1.387-0.322c-0.54,0-1.021,0.112-1.44,0.337s-0.775,0.518-1.065,0.877s-0.512,0.772-0.667,1.237
			C393.004,96.151,392.927,96.624,392.927,97.104z"/>
		<path d="M411.916,91.779v10.65h-1.694v-4.695h-5.37v4.695h-1.68v-10.65h1.68v4.455h5.37v-4.455H411.916z"/>
	</g>
	<g>
		<path d="M359.22,97.029c0-0.64,0.114-1.277,0.345-1.913c0.23-0.635,0.567-1.205,1.013-1.71c0.444-0.505,0.987-0.913,1.627-1.223
			c0.641-0.31,1.365-0.465,2.176-0.465c0.97,0,1.8,0.215,2.489,0.645c0.69,0.43,1.21,0.99,1.561,1.68l-1.32,0.885
			c-0.149-0.32-0.33-0.59-0.54-0.81c-0.21-0.22-0.439-0.395-0.689-0.525s-0.511-0.223-0.78-0.277
			c-0.271-0.055-0.53-0.083-0.78-0.083c-0.56,0-1.05,0.112-1.47,0.337s-0.772,0.522-1.058,0.893s-0.5,0.785-0.645,1.245
			c-0.146,0.46-0.218,0.92-0.218,1.38c0,0.52,0.085,1.015,0.255,1.485c0.17,0.47,0.407,0.885,0.713,1.245
			c0.305,0.36,0.667,0.647,1.087,0.862c0.42,0.215,0.88,0.323,1.38,0.323c0.26,0,0.527-0.033,0.803-0.098s0.54-0.17,0.795-0.315
			s0.49-0.328,0.705-0.547c0.215-0.22,0.393-0.485,0.532-0.795l1.396,0.795c-0.17,0.4-0.41,0.752-0.72,1.057
			c-0.311,0.305-0.66,0.562-1.051,0.772c-0.39,0.21-0.802,0.37-1.237,0.48c-0.435,0.11-0.862,0.165-1.282,0.165
			c-0.75,0-1.436-0.16-2.055-0.48c-0.62-0.32-1.155-0.737-1.605-1.252c-0.45-0.515-0.8-1.1-1.05-1.755
			C359.345,98.377,359.22,97.709,359.22,97.029z"/>
	</g>
	<polyline class="st1" points="64.914,5.813 89.164,5.813 89.164,43.563 	"/>
	<polyline class="st1" points="64.914,97.313 89.164,97.313 89.164,59.563 	"/>
	<polyline class="st1" points="218.414,5.813 242.664,5.813 242.664,43.563 	"/>
	<polyline class="st1" points="218.414,97.313 242.664,97.313 242.664,59.563 	"/>
	<g>
		<line class="st1" x1="34.915" y1="4.313" x2="50.165" y2="4.313"/>
		<line class="st1" x1="34.915" y1="7.563" x2="50.165" y2="7.563"/>
	</g>
	<g>
		<line class="st1" x1="188.415" y1="4.313" x2="203.665" y2="4.313"/>
		<line class="st1" x1="188.415" y1="7.563" x2="203.665" y2="7.563"/>
	</g>
	<g>
		<line class="st1" x1="188.415" y1="34.313" x2="203.665" y2="34.313"/>
		<line class="st1" x1="188.415" y1="37.563" x2="203.665" y2="37.563"/>
	</g>
	<g>
		<g>
			<line class="st2" x1="269.911" y1="48.563" x2="305.959" y2="48.563"/>
			<g>
				<path class="st3" d="M299.125,53.363c-0.148-0.232-0.08-0.542,0.153-0.69l6.453-4.109l-6.453-4.109
					c-0.233-0.148-0.302-0.458-0.153-0.69c0.148-0.232,0.459-0.3,0.69-0.153l7.115,4.531c0.144,0.092,0.231,0.251,0.231,0.422
					s-0.087,0.33-0.231,0.422l-7.115,4.531c-0.083,0.053-0.176,0.078-0.268,0.078C299.382,53.594,299.22,53.512,299.125,53.363z"/>
			</g>
		</g>
	</g>
	<g>
		<line class="st1" x1="188.415" y1="65.313" x2="203.665" y2="65.313"/>
		<line class="st1" x1="188.415" y1="68.563" x2="203.665" y2="68.563"/>
	</g>
	<line class="st1" x1="188.415" y1="97.313" x2="203.665" y2="97.313"/>
	<line class="st1" x1="188.415" y1="128.063" x2="203.665" y2="128.063"/>
	<line class="st1" x1="341.279" y1="34.313" x2="356.529" y2="34.313"/>
	<line class="st1" x1="341.279" y1="37.563" x2="356.529" y2="37.563"/>
	<line class="st1" x1="341.279" y1="65.313" x2="356.529" y2="65.313"/>
	<line class="st1" x1="341.279" y1="68.563" x2="356.529" y2="68.563"/>
	<line class="st1" x1="341.279" y1="97.313" x2="356.529" y2="97.313"/>
	<line class="st1" x1="371.695" y1="97.313" x2="386.945" y2="97.313"/>
	<line class="st1" x1="371.695" y1="128.063" x2="386.945" y2="128.063"/>
	<line class="st1" x1="341.279" y1="128.063" x2="356.529" y2="128.063"/>
	<line class="st1" x1="219.415" y1="128.063" x2="234.665" y2="128.063"/>
	<line class="st1" x1="59.666" y1="43.313" x2="59.666" y2="58.563"/>
	<line class="st1" x1="57.916" y1="13.313" x2="57.916" y2="28.563"/>
	<line class="st1" x1="211.166" y1="13.313" x2="211.166" y2="28.563"/>
	<line class="st1" x1="211.166" y1="43.563" x2="211.166" y2="58.813"/>
	<line class="st1" x1="211.166" y1="74.063" x2="211.166" y2="89.313"/>
	<line class="st1" x1="211.166" y1="105.063" x2="211.166" y2="120.313"/>
	<line class="st1" x1="211.166" y1="136.313" x2="211.166" y2="151.563"/>
	<line class="st1" x1="364.446" y1="13.313" x2="364.446" y2="28.563"/>
	<line class="st1" x1="364.446" y1="43.563" x2="364.446" y2="58.813"/>
	<line class="st1" x1="364.446" y1="74.063" x2="364.446" y2="89.313"/>
	<line class="st1" x1="364.446" y1="105.063" x2="364.446" y2="120.313"/>
	<line class="st1" x1="364.446" y1="136.313" x2="364.446" y2="151.563"/>
	<line class="st1" x1="57.916" y1="74.063" x2="57.916" y2="89.313"/>
	<line class="st1" x1="57.916" y1="105.313" x2="57.916" y2="120.563"/>
	<line class="st1" x1="57.916" y1="135.813" x2="57.916" y2="151.063"/>
	<line class="st1" x1="56.416" y1="43.313" x2="56.416" y2="58.563"/>
	<line class="st1" x1="34.915" y1="36.313" x2="50.165" y2="36.313"/>
	<line class="st1" x1="34.915" y1="66.813" x2="50.165" y2="66.813"/>
	<line class="st1" x1="34.915" y1="97.313" x2="50.165" y2="97.313"/>
	<line class="st1" x1="34.915" y1="128.313" x2="50.165" y2="128.313"/>
	<line class="st1" x1="66.165" y1="128.313" x2="81.415" y2="128.313"/>
	<g>
		<polyline class="st1" points="119.169,45.813 153.169,45.813 144.419,40.813 		"/>
		<polyline class="st1" points="153.669,49.563 119.669,49.563 128.419,54.563 		"/>
	</g>
	<g>
		<path d="M29.38,202.578v-8.52h0.84v7.775h4.92v0.744H29.38z"/>
		<path d="M35.044,199.686v-0.757h3.504v0.757H35.044z"/>
		<path d="M42.856,194.058h0.708l3.54,8.52h-0.888l-1.104-2.664h-3.828l-1.092,2.664h-0.9L42.856,194.058z M44.92,199.254
			l-1.716-4.212l-1.74,4.212H44.92z"/>
		<path d="M50.164,202.698c-0.488,0-0.964-0.08-1.428-0.24s-0.864-0.392-1.2-0.696l0.372-0.552c0.352,0.288,0.709,0.504,1.074,0.648
			c0.364,0.144,0.754,0.216,1.17,0.216c0.504,0,0.906-0.103,1.206-0.306c0.3-0.204,0.45-0.494,0.45-0.87
			c0-0.176-0.04-0.322-0.12-0.438c-0.08-0.115-0.198-0.218-0.354-0.306s-0.352-0.166-0.588-0.234
			c-0.236-0.067-0.51-0.138-0.822-0.21c-0.36-0.088-0.672-0.176-0.936-0.264c-0.264-0.088-0.482-0.188-0.654-0.3
			c-0.172-0.112-0.3-0.25-0.384-0.414s-0.126-0.37-0.126-0.618c0-0.312,0.062-0.588,0.186-0.828s0.292-0.438,0.504-0.594
			c0.212-0.156,0.46-0.274,0.744-0.354c0.284-0.08,0.586-0.12,0.906-0.12c0.48,0,0.916,0.078,1.308,0.234
			c0.392,0.156,0.708,0.362,0.948,0.618l-0.396,0.479c-0.232-0.239-0.514-0.42-0.846-0.54c-0.333-0.12-0.678-0.18-1.038-0.18
			c-0.216,0-0.416,0.022-0.6,0.066s-0.346,0.113-0.486,0.21c-0.14,0.096-0.25,0.218-0.33,0.365c-0.08,0.148-0.12,0.322-0.12,0.522
			c0,0.168,0.028,0.304,0.084,0.408c0.056,0.104,0.148,0.193,0.276,0.27s0.29,0.145,0.486,0.204
			c0.196,0.061,0.434,0.122,0.714,0.187c0.4,0.096,0.752,0.191,1.056,0.288c0.304,0.096,0.558,0.208,0.762,0.336
			s0.358,0.283,0.462,0.468c0.104,0.184,0.156,0.408,0.156,0.672c0,0.576-0.22,1.032-0.66,1.368S50.908,202.698,50.164,202.698z"/>
		<path d="M53.5,199.434c0-0.44,0.076-0.856,0.228-1.248c0.152-0.393,0.366-0.734,0.642-1.026s0.606-0.522,0.99-0.69
			c0.384-0.168,0.808-0.252,1.272-0.252c0.592,0,1.108,0.135,1.548,0.402c0.44,0.269,0.772,0.63,0.996,1.086l-0.792,0.252
			c-0.176-0.319-0.422-0.57-0.738-0.75c-0.316-0.18-0.666-0.27-1.05-0.27c-0.32,0-0.618,0.063-0.894,0.191s-0.516,0.303-0.72,0.522
			c-0.204,0.22-0.364,0.481-0.48,0.786c-0.116,0.304-0.174,0.636-0.174,0.996c0,0.352,0.06,0.684,0.18,0.995
			c0.12,0.312,0.284,0.582,0.492,0.811c0.208,0.228,0.45,0.408,0.726,0.54c0.276,0.132,0.57,0.198,0.882,0.198
			c0.2,0,0.397-0.028,0.594-0.084c0.196-0.057,0.378-0.135,0.546-0.234s0.312-0.214,0.432-0.342s0.204-0.265,0.252-0.408l0.804,0.24
			c-0.088,0.224-0.216,0.43-0.384,0.618c-0.168,0.188-0.366,0.352-0.594,0.491c-0.228,0.141-0.48,0.248-0.756,0.324
			c-0.276,0.076-0.562,0.114-0.858,0.114c-0.456,0-0.876-0.086-1.26-0.258c-0.384-0.172-0.716-0.408-0.996-0.708
			c-0.28-0.301-0.498-0.646-0.654-1.038C53.578,200.302,53.5,199.881,53.5,199.434z"/>
		<path d="M63.124,202.698c-0.456,0-0.872-0.086-1.248-0.258s-0.702-0.406-0.978-0.702s-0.49-0.64-0.642-1.032
			c-0.152-0.392-0.228-0.804-0.228-1.236c0-0.439,0.078-0.855,0.234-1.248c0.156-0.392,0.372-0.735,0.648-1.031
			s0.602-0.532,0.978-0.708c0.376-0.176,0.788-0.265,1.236-0.265c0.448,0,0.862,0.089,1.242,0.265
			c0.38,0.176,0.708,0.412,0.984,0.708s0.492,0.64,0.648,1.031c0.156,0.393,0.234,0.809,0.234,1.248
			c0,0.433-0.076,0.845-0.228,1.236c-0.152,0.393-0.366,0.736-0.642,1.032c-0.276,0.296-0.604,0.53-0.984,0.702
			S63.58,202.698,63.124,202.698z M60.856,199.482c0,0.352,0.06,0.678,0.18,0.978s0.282,0.564,0.486,0.792
			c0.204,0.229,0.444,0.406,0.72,0.534c0.276,0.128,0.57,0.192,0.882,0.192s0.606-0.066,0.882-0.198
			c0.276-0.132,0.518-0.312,0.726-0.54c0.208-0.229,0.372-0.494,0.492-0.798s0.18-0.632,0.18-0.984c0-0.344-0.06-0.67-0.18-0.978
			c-0.12-0.309-0.284-0.576-0.492-0.805c-0.208-0.228-0.45-0.407-0.726-0.54c-0.276-0.132-0.57-0.197-0.882-0.197
			s-0.604,0.065-0.876,0.197c-0.272,0.133-0.512,0.314-0.72,0.546c-0.208,0.232-0.372,0.503-0.492,0.811
			S60.856,199.129,60.856,199.482z"/>
		<path d="M70.72,197.046c-0.552,0.017-1.032,0.168-1.44,0.456c-0.408,0.288-0.696,0.685-0.864,1.188v3.888H67.6v-6.252h0.768v1.5
			c0.232-0.48,0.544-0.856,0.936-1.128c0.392-0.272,0.812-0.408,1.26-0.408c0.064,0,0.116,0.004,0.156,0.012V197.046z"/>
		<path d="M74.872,202.698c-0.496,0-0.95-0.124-1.362-0.372c-0.412-0.248-0.734-0.568-0.966-0.96v1.212h-0.732v-8.76h0.816v3.815
			c0.28-0.424,0.616-0.766,1.008-1.025c0.392-0.26,0.848-0.391,1.368-0.391c0.44,0,0.834,0.093,1.182,0.276
			c0.348,0.185,0.644,0.43,0.888,0.738c0.244,0.308,0.432,0.656,0.564,1.044s0.198,0.786,0.198,1.193
			c0,0.44-0.076,0.856-0.228,1.248c-0.152,0.393-0.36,0.734-0.624,1.026c-0.264,0.292-0.578,0.524-0.942,0.696
			C75.678,202.612,75.288,202.698,74.872,202.698z M74.68,201.978c0.344,0,0.658-0.07,0.942-0.21
			c0.284-0.141,0.528-0.328,0.732-0.564s0.364-0.504,0.48-0.804c0.116-0.3,0.174-0.61,0.174-0.931c0-0.327-0.054-0.644-0.162-0.947
			c-0.108-0.305-0.26-0.574-0.456-0.811c-0.196-0.235-0.432-0.424-0.708-0.563c-0.276-0.141-0.578-0.21-0.906-0.21
			c-0.248,0-0.48,0.042-0.696,0.126s-0.416,0.197-0.6,0.342c-0.184,0.144-0.348,0.31-0.492,0.498
			c-0.144,0.188-0.264,0.386-0.36,0.594v1.944c0.032,0.216,0.118,0.418,0.258,0.605c0.14,0.188,0.308,0.351,0.504,0.486
			c0.196,0.136,0.408,0.244,0.636,0.324C74.254,201.938,74.472,201.978,74.68,201.978z"/>
		<path d="M79.215,195.018v-1.2h0.816v1.2H79.215z M79.215,202.578v-6.252h0.816v6.252H79.215z"/>
		<path d="M81.399,199.434c0-0.44,0.076-0.856,0.228-1.248c0.152-0.393,0.366-0.734,0.642-1.026s0.606-0.522,0.99-0.69
			c0.384-0.168,0.808-0.252,1.272-0.252c0.592,0,1.108,0.135,1.548,0.402c0.44,0.269,0.772,0.63,0.996,1.086l-0.792,0.252
			c-0.176-0.319-0.422-0.57-0.738-0.75c-0.316-0.18-0.666-0.27-1.05-0.27c-0.32,0-0.618,0.063-0.894,0.191s-0.516,0.303-0.72,0.522
			c-0.204,0.22-0.364,0.481-0.48,0.786c-0.116,0.304-0.174,0.636-0.174,0.996c0,0.352,0.06,0.684,0.18,0.995
			c0.12,0.312,0.284,0.582,0.492,0.811c0.208,0.228,0.45,0.408,0.726,0.54c0.276,0.132,0.57,0.198,0.882,0.198
			c0.2,0,0.397-0.028,0.594-0.084c0.196-0.057,0.378-0.135,0.546-0.234s0.312-0.214,0.432-0.342s0.204-0.265,0.252-0.408l0.804,0.24
			c-0.088,0.224-0.216,0.43-0.384,0.618c-0.168,0.188-0.366,0.352-0.594,0.491c-0.228,0.141-0.48,0.248-0.756,0.324
			c-0.276,0.076-0.562,0.114-0.858,0.114c-0.456,0-0.876-0.086-1.26-0.258c-0.384-0.172-0.716-0.408-0.996-0.708
			c-0.28-0.301-0.498-0.646-0.654-1.038C81.477,200.302,81.399,199.881,81.399,199.434z"/>
		<path d="M49.318,208.058h0.708l3.54,8.52h-0.888l-1.104-2.664h-3.828l-1.092,2.664h-0.9L49.318,208.058z M51.382,213.254
			l-1.716-4.212l-1.74,4.212H51.382z"/>
		<path d="M54.022,213.434c0-0.44,0.076-0.856,0.228-1.248c0.152-0.393,0.366-0.734,0.642-1.026s0.606-0.522,0.99-0.69
			c0.384-0.168,0.808-0.252,1.272-0.252c0.592,0,1.108,0.135,1.548,0.402c0.44,0.269,0.772,0.63,0.996,1.086l-0.792,0.252
			c-0.176-0.319-0.422-0.57-0.738-0.75c-0.316-0.18-0.666-0.27-1.05-0.27c-0.32,0-0.618,0.063-0.894,0.191s-0.516,0.303-0.72,0.522
			c-0.204,0.22-0.364,0.481-0.48,0.786c-0.116,0.304-0.174,0.636-0.174,0.996c0,0.352,0.06,0.684,0.18,0.995
			c0.12,0.312,0.284,0.582,0.492,0.811c0.208,0.228,0.45,0.408,0.726,0.54c0.276,0.132,0.57,0.198,0.882,0.198
			c0.2,0,0.397-0.028,0.594-0.084c0.196-0.057,0.378-0.135,0.546-0.234s0.312-0.214,0.432-0.342s0.204-0.265,0.252-0.408l0.804,0.24
			c-0.088,0.224-0.216,0.43-0.384,0.618c-0.168,0.188-0.366,0.352-0.594,0.491c-0.228,0.141-0.48,0.248-0.756,0.324
			c-0.276,0.076-0.562,0.114-0.858,0.114c-0.456,0-0.876-0.086-1.26-0.258c-0.384-0.172-0.716-0.408-0.996-0.708
			c-0.28-0.301-0.498-0.646-0.654-1.038C54.1,214.302,54.022,213.881,54.022,213.434z"/>
		<path d="M61.042,209.018v-1.2h0.816v1.2H61.042z M61.042,216.578v-6.252h0.816v6.252H61.042z"/>
		<path d="M66.225,216.698c-0.432,0-0.832-0.09-1.2-0.271c-0.368-0.18-0.684-0.418-0.948-0.714c-0.264-0.296-0.47-0.638-0.618-1.025
			c-0.148-0.389-0.222-0.794-0.222-1.219c0-0.439,0.072-0.857,0.216-1.254c0.144-0.396,0.342-0.741,0.594-1.038
			c0.252-0.296,0.552-0.529,0.9-0.701c0.348-0.173,0.73-0.259,1.146-0.259c0.528,0,0.996,0.139,1.404,0.414
			c0.408,0.276,0.728,0.61,0.96,1.002v-3.815h0.816v7.704c0,0.224,0.096,0.336,0.288,0.336v0.72
			c-0.12,0.024-0.216,0.036-0.288,0.036c-0.192,0-0.36-0.062-0.504-0.187c-0.144-0.124-0.216-0.273-0.216-0.449v-0.612
			c-0.248,0.408-0.584,0.731-1.008,0.972C67.121,216.578,66.681,216.698,66.225,216.698z M66.405,215.978
			c0.2,0,0.414-0.04,0.642-0.12s0.442-0.19,0.642-0.33c0.2-0.14,0.37-0.304,0.51-0.492c0.14-0.188,0.226-0.39,0.258-0.606v-1.932
			c-0.08-0.216-0.196-0.418-0.348-0.605c-0.152-0.188-0.326-0.354-0.522-0.498c-0.196-0.145-0.406-0.256-0.63-0.336
			c-0.224-0.08-0.444-0.12-0.66-0.12c-0.336,0-0.64,0.071-0.912,0.216c-0.272,0.144-0.506,0.334-0.702,0.57
			c-0.196,0.235-0.346,0.506-0.45,0.81s-0.156,0.616-0.156,0.936c0,0.336,0.06,0.656,0.18,0.96c0.12,0.305,0.284,0.57,0.492,0.799
			c0.208,0.228,0.454,0.41,0.738,0.546C65.771,215.91,66.077,215.978,66.405,215.978z"/>
	</g>
	<g>
		<path d="M159.668,202.578v-8.52h0.84v7.775h4.92v0.744H159.668z"/>
		<path d="M165.332,199.686v-0.757h3.504v0.757H165.332z"/>
		<path d="M170.684,202.578v-8.52h2.892c0.68,0,1.274,0.111,1.782,0.336c0.508,0.224,0.932,0.527,1.272,0.911
			c0.34,0.385,0.596,0.834,0.768,1.351c0.172,0.516,0.258,1.066,0.258,1.649c0,0.648-0.096,1.234-0.288,1.759
			c-0.192,0.523-0.466,0.972-0.822,1.344c-0.356,0.372-0.784,0.66-1.284,0.864s-1.062,0.306-1.686,0.306H170.684z M176.817,198.305
			c0-0.512-0.072-0.981-0.216-1.409c-0.144-0.429-0.354-0.799-0.63-1.11s-0.614-0.554-1.014-0.726s-0.86-0.259-1.38-0.259h-2.052
			v7.032h2.052c0.528,0,0.994-0.09,1.398-0.27c0.404-0.181,0.742-0.428,1.014-0.744s0.478-0.688,0.618-1.116
			C176.746,199.276,176.817,198.81,176.817,198.305z"/>
		<path d="M181.797,202.698c-0.456,0-0.874-0.086-1.254-0.258c-0.38-0.172-0.71-0.408-0.99-0.708
			c-0.28-0.301-0.498-0.646-0.654-1.038c-0.156-0.392-0.234-0.812-0.234-1.26c0-0.44,0.078-0.854,0.234-1.242
			c0.156-0.389,0.372-0.729,0.648-1.021s0.606-0.523,0.99-0.695c0.384-0.173,0.8-0.259,1.248-0.259c0.456,0,0.874,0.086,1.254,0.259
			c0.38,0.172,0.706,0.405,0.978,0.701c0.272,0.297,0.484,0.637,0.636,1.021c0.152,0.384,0.228,0.792,0.228,1.224
			c0,0.064,0,0.128,0,0.192s-0.004,0.107-0.012,0.132h-5.352c0.024,0.336,0.102,0.646,0.234,0.93c0.132,0.284,0.302,0.53,0.51,0.738
			s0.446,0.37,0.714,0.486s0.554,0.174,0.858,0.174c0.2,0,0.4-0.028,0.6-0.084c0.2-0.056,0.384-0.132,0.552-0.229
			c0.168-0.096,0.32-0.214,0.456-0.354c0.136-0.14,0.24-0.294,0.312-0.462l0.708,0.191c-0.096,0.232-0.232,0.442-0.408,0.631
			c-0.176,0.188-0.38,0.352-0.612,0.491c-0.232,0.141-0.488,0.248-0.768,0.324C182.392,202.66,182.1,202.698,181.797,202.698z
			 M184.1,199.122c-0.024-0.336-0.102-0.642-0.234-0.918s-0.3-0.514-0.504-0.714s-0.44-0.356-0.708-0.468
			c-0.268-0.112-0.554-0.168-0.858-0.168c-0.304,0-0.592,0.056-0.864,0.168c-0.272,0.111-0.51,0.268-0.714,0.468
			s-0.368,0.44-0.492,0.72c-0.124,0.28-0.198,0.584-0.222,0.912H184.1z"/>
		<path d="M191.396,202.578h-0.816v-3.492c0-0.712-0.122-1.244-0.366-1.596c-0.244-0.352-0.602-0.528-1.074-0.528
			c-0.232,0-0.462,0.046-0.69,0.139c-0.228,0.092-0.442,0.218-0.642,0.378c-0.2,0.16-0.374,0.348-0.522,0.563
			s-0.258,0.452-0.33,0.708v3.828h-0.816v-8.76h0.816v3.924c0.248-0.472,0.592-0.844,1.032-1.116
			c0.44-0.271,0.916-0.408,1.428-0.408c0.36,0,0.664,0.066,0.912,0.198s0.452,0.316,0.612,0.552c0.16,0.236,0.276,0.521,0.348,0.853
			c0.072,0.332,0.108,0.698,0.108,1.098V202.578z"/>
		<path d="M193.328,204.498c0.064,0.008,0.126,0.014,0.186,0.019c0.06,0.004,0.118,0.006,0.174,0.006
			c0.144,0,0.258-0.021,0.342-0.061s0.166-0.128,0.246-0.264c0.08-0.137,0.17-0.332,0.27-0.588c0.1-0.257,0.242-0.601,0.426-1.032
			l-2.724-6.252h0.84l2.316,5.496l2.148-5.496h0.78l-3.24,8.063c-0.088,0.232-0.234,0.435-0.438,0.606s-0.482,0.258-0.834,0.258
			c-0.08,0-0.156-0.002-0.228-0.006c-0.072-0.004-0.16-0.014-0.264-0.03V204.498z"/>
		<path d="M201.824,202.698c-0.432,0-0.832-0.09-1.2-0.271c-0.368-0.18-0.684-0.418-0.948-0.714
			c-0.264-0.296-0.47-0.638-0.618-1.025c-0.148-0.389-0.222-0.794-0.222-1.219c0-0.439,0.072-0.857,0.216-1.254
			c0.144-0.396,0.342-0.741,0.594-1.038c0.252-0.296,0.552-0.529,0.9-0.701c0.348-0.173,0.73-0.259,1.146-0.259
			c0.528,0,0.996,0.139,1.404,0.414c0.408,0.276,0.728,0.61,0.96,1.002v-3.815h0.816v7.704c0,0.224,0.096,0.336,0.288,0.336v0.72
			c-0.12,0.024-0.216,0.036-0.288,0.036c-0.192,0-0.36-0.062-0.504-0.187c-0.144-0.124-0.216-0.273-0.216-0.449v-0.612
			c-0.248,0.408-0.584,0.731-1.008,0.972C202.72,202.578,202.28,202.698,201.824,202.698z M202.005,201.978
			c0.2,0,0.414-0.04,0.642-0.12s0.442-0.19,0.642-0.33c0.2-0.14,0.37-0.304,0.51-0.492c0.14-0.188,0.226-0.39,0.258-0.606v-1.932
			c-0.08-0.216-0.196-0.418-0.348-0.605c-0.152-0.188-0.326-0.354-0.522-0.498c-0.196-0.145-0.406-0.256-0.63-0.336
			c-0.224-0.08-0.444-0.12-0.66-0.12c-0.336,0-0.64,0.071-0.912,0.216c-0.272,0.144-0.506,0.334-0.702,0.57
			c-0.196,0.235-0.346,0.506-0.45,0.81s-0.156,0.616-0.156,0.936c0,0.336,0.06,0.656,0.18,0.96c0.12,0.305,0.284,0.57,0.492,0.799
			c0.208,0.228,0.454,0.41,0.738,0.546C201.37,201.91,201.676,201.978,202.005,201.978z"/>
		<path d="M209.84,197.046c-0.552,0.017-1.032,0.168-1.44,0.456c-0.408,0.288-0.696,0.685-0.864,1.188v3.888h-0.816v-6.252h0.768
			v1.5c0.232-0.48,0.544-0.856,0.936-1.128c0.392-0.272,0.812-0.408,1.26-0.408c0.064,0,0.116,0.004,0.156,0.012V197.046z"/>
		<path d="M213.284,202.698c-0.456,0-0.872-0.086-1.248-0.258s-0.702-0.406-0.978-0.702s-0.49-0.64-0.642-1.032
			c-0.152-0.392-0.228-0.804-0.228-1.236c0-0.439,0.078-0.855,0.234-1.248c0.156-0.392,0.372-0.735,0.648-1.031
			s0.602-0.532,0.978-0.708c0.376-0.176,0.788-0.265,1.236-0.265c0.448,0,0.862,0.089,1.242,0.265
			c0.38,0.176,0.708,0.412,0.984,0.708s0.493,0.64,0.648,1.031c0.156,0.393,0.234,0.809,0.234,1.248
			c0,0.433-0.076,0.845-0.229,1.236c-0.151,0.393-0.366,0.736-0.642,1.032c-0.276,0.296-0.604,0.53-0.984,0.702
			S213.74,202.698,213.284,202.698z M211.016,199.482c0,0.352,0.06,0.678,0.18,0.978s0.282,0.564,0.486,0.792
			c0.204,0.229,0.444,0.406,0.72,0.534c0.276,0.128,0.57,0.192,0.882,0.192s0.606-0.066,0.882-0.198
			c0.276-0.132,0.518-0.312,0.726-0.54c0.208-0.229,0.372-0.494,0.492-0.798s0.18-0.632,0.18-0.984c0-0.344-0.06-0.67-0.18-0.978
			c-0.12-0.309-0.284-0.576-0.492-0.805c-0.208-0.228-0.45-0.407-0.726-0.54c-0.276-0.132-0.57-0.197-0.882-0.197
			s-0.604,0.065-0.876,0.197c-0.272,0.133-0.512,0.314-0.72,0.546c-0.208,0.232-0.372,0.503-0.492,0.811
			S211.016,199.129,211.016,199.482z"/>
		<path d="M219.332,202.698c-0.296,0-0.57-0.05-0.822-0.15c-0.252-0.1-0.472-0.237-0.659-0.414
			c-0.188-0.176-0.335-0.382-0.438-0.617c-0.104-0.236-0.156-0.49-0.156-0.763c0-0.271,0.064-0.523,0.192-0.756
			c0.128-0.231,0.308-0.432,0.54-0.6c0.231-0.168,0.508-0.298,0.828-0.391c0.319-0.092,0.672-0.138,1.056-0.138
			c0.32,0,0.644,0.028,0.972,0.084s0.62,0.136,0.876,0.24v-0.564c0-0.552-0.155-0.99-0.468-1.313
			c-0.312-0.324-0.744-0.486-1.296-0.486c-0.32,0-0.647,0.064-0.984,0.192c-0.336,0.128-0.676,0.312-1.02,0.552l-0.288-0.54
			c0.808-0.544,1.592-0.816,2.352-0.816c0.784,0,1.4,0.221,1.849,0.66c0.448,0.44,0.672,1.048,0.672,1.824v2.82
			c0,0.224,0.1,0.336,0.3,0.336v0.72c-0.136,0.024-0.24,0.036-0.312,0.036c-0.208,0-0.37-0.052-0.486-0.156
			c-0.116-0.104-0.178-0.248-0.186-0.432l-0.024-0.492c-0.288,0.376-0.65,0.664-1.086,0.864
			C220.306,202.597,219.836,202.698,219.332,202.698z M219.525,202.074c0.424,0,0.813-0.08,1.17-0.24
			c0.355-0.16,0.626-0.372,0.81-0.636c0.072-0.072,0.126-0.15,0.162-0.234s0.054-0.162,0.054-0.233v-1.021
			c-0.271-0.104-0.554-0.184-0.846-0.24c-0.292-0.056-0.59-0.084-0.894-0.084c-0.576,0-1.044,0.12-1.404,0.36
			s-0.54,0.557-0.54,0.948c0,0.191,0.038,0.372,0.114,0.54c0.075,0.168,0.18,0.313,0.312,0.438s0.29,0.223,0.475,0.294
			C219.12,202.038,219.317,202.074,219.525,202.074z"/>
		<path d="M226.376,202.698c-0.488,0-0.964-0.08-1.428-0.24s-0.864-0.392-1.2-0.696l0.372-0.552c0.352,0.288,0.71,0.504,1.074,0.648
			c0.363,0.144,0.754,0.216,1.17,0.216c0.504,0,0.906-0.103,1.206-0.306c0.3-0.204,0.45-0.494,0.45-0.87
			c0-0.176-0.04-0.322-0.12-0.438c-0.08-0.115-0.198-0.218-0.354-0.306c-0.155-0.088-0.352-0.166-0.588-0.234
			c-0.236-0.067-0.51-0.138-0.822-0.21c-0.359-0.088-0.672-0.176-0.936-0.264s-0.482-0.188-0.654-0.3
			c-0.172-0.112-0.3-0.25-0.384-0.414s-0.126-0.37-0.126-0.618c0-0.312,0.062-0.588,0.186-0.828s0.292-0.438,0.505-0.594
			c0.212-0.156,0.46-0.274,0.743-0.354c0.284-0.08,0.586-0.12,0.906-0.12c0.48,0,0.916,0.078,1.309,0.234
			c0.392,0.156,0.708,0.362,0.947,0.618l-0.396,0.479c-0.232-0.239-0.515-0.42-0.846-0.54c-0.333-0.12-0.679-0.18-1.038-0.18
			c-0.217,0-0.416,0.022-0.601,0.066c-0.184,0.044-0.346,0.113-0.485,0.21c-0.141,0.096-0.251,0.218-0.33,0.365
			c-0.08,0.148-0.12,0.322-0.12,0.522c0,0.168,0.027,0.304,0.084,0.408c0.056,0.104,0.147,0.193,0.275,0.27s0.29,0.145,0.486,0.204
			c0.196,0.061,0.434,0.122,0.714,0.187c0.4,0.096,0.752,0.191,1.057,0.288c0.304,0.096,0.558,0.208,0.762,0.336
			s0.357,0.283,0.462,0.468c0.104,0.184,0.156,0.408,0.156,0.672c0,0.576-0.221,1.032-0.66,1.368
			C227.712,202.53,227.12,202.698,226.376,202.698z"/>
		<path d="M229.713,199.434c0-0.44,0.076-0.856,0.228-1.248c0.152-0.393,0.366-0.734,0.643-1.026c0.275-0.292,0.605-0.522,0.99-0.69
			c0.384-0.168,0.808-0.252,1.271-0.252c0.592,0,1.108,0.135,1.548,0.402c0.44,0.269,0.772,0.63,0.996,1.086l-0.792,0.252
			c-0.176-0.319-0.422-0.57-0.738-0.75c-0.315-0.18-0.665-0.27-1.05-0.27c-0.319,0-0.618,0.063-0.894,0.191
			c-0.276,0.128-0.517,0.303-0.72,0.522c-0.204,0.22-0.364,0.481-0.48,0.786c-0.116,0.304-0.174,0.636-0.174,0.996
			c0,0.352,0.06,0.684,0.18,0.995c0.12,0.312,0.284,0.582,0.492,0.811c0.208,0.228,0.45,0.408,0.726,0.54
			c0.276,0.132,0.57,0.198,0.883,0.198c0.199,0,0.397-0.028,0.594-0.084c0.195-0.057,0.378-0.135,0.546-0.234
			s0.312-0.214,0.432-0.342s0.204-0.265,0.252-0.408l0.805,0.24c-0.089,0.224-0.217,0.43-0.385,0.618
			c-0.168,0.188-0.365,0.352-0.594,0.491c-0.228,0.141-0.479,0.248-0.756,0.324s-0.562,0.114-0.858,0.114
			c-0.456,0-0.876-0.086-1.26-0.258s-0.716-0.408-0.996-0.708c-0.28-0.301-0.498-0.646-0.653-1.038
			C229.791,200.302,229.713,199.881,229.713,199.434z"/>
		<path d="M239.337,202.698c-0.456,0-0.872-0.086-1.248-0.258s-0.702-0.406-0.979-0.702c-0.275-0.296-0.49-0.64-0.642-1.032
			c-0.152-0.392-0.229-0.804-0.229-1.236c0-0.439,0.078-0.855,0.234-1.248c0.156-0.392,0.372-0.735,0.648-1.031
			c0.275-0.296,0.602-0.532,0.978-0.708s0.788-0.265,1.236-0.265c0.447,0,0.861,0.089,1.242,0.265
			c0.38,0.176,0.708,0.412,0.983,0.708c0.276,0.296,0.492,0.64,0.648,1.031c0.156,0.393,0.233,0.809,0.233,1.248
			c0,0.433-0.076,0.845-0.228,1.236c-0.152,0.393-0.366,0.736-0.643,1.032c-0.275,0.296-0.604,0.53-0.983,0.702
			S239.793,202.698,239.337,202.698z M237.068,199.482c0,0.352,0.061,0.678,0.181,0.978s0.281,0.564,0.485,0.792
			c0.204,0.229,0.444,0.406,0.721,0.534c0.275,0.128,0.569,0.192,0.882,0.192c0.312,0,0.605-0.066,0.882-0.198
			s0.518-0.312,0.726-0.54c0.208-0.229,0.372-0.494,0.492-0.798s0.181-0.632,0.181-0.984c0-0.344-0.061-0.67-0.181-0.978
			c-0.12-0.309-0.284-0.576-0.492-0.805c-0.208-0.228-0.449-0.407-0.726-0.54c-0.276-0.132-0.57-0.197-0.882-0.197
			c-0.312,0-0.604,0.065-0.876,0.197c-0.272,0.133-0.513,0.314-0.721,0.546c-0.208,0.232-0.371,0.503-0.491,0.811
			S237.068,199.129,237.068,199.482z"/>
		<path d="M246.933,197.046c-0.553,0.017-1.032,0.168-1.44,0.456s-0.696,0.685-0.864,1.188v3.888h-0.815v-6.252h0.768v1.5
			c0.232-0.48,0.544-0.856,0.937-1.128c0.392-0.272,0.812-0.408,1.26-0.408c0.063,0,0.116,0.004,0.156,0.012V197.046z"/>
		<path d="M251.084,202.698c-0.496,0-0.95-0.124-1.361-0.372c-0.412-0.248-0.734-0.568-0.967-0.96v1.212h-0.731v-8.76h0.815v3.815
			c0.28-0.424,0.616-0.766,1.009-1.025c0.392-0.26,0.848-0.391,1.367-0.391c0.44,0,0.834,0.093,1.183,0.276
			c0.348,0.185,0.644,0.43,0.888,0.738c0.244,0.308,0.433,0.656,0.564,1.044s0.197,0.786,0.197,1.193
			c0,0.44-0.076,0.856-0.228,1.248c-0.152,0.393-0.36,0.734-0.624,1.026s-0.578,0.524-0.942,0.696
			C251.891,202.612,251.5,202.698,251.084,202.698z M250.893,201.978c0.344,0,0.657-0.07,0.941-0.21
			c0.284-0.141,0.528-0.328,0.732-0.564s0.364-0.504,0.479-0.804c0.116-0.3,0.175-0.61,0.175-0.931c0-0.327-0.055-0.644-0.162-0.947
			c-0.108-0.305-0.261-0.574-0.456-0.811c-0.196-0.235-0.433-0.424-0.708-0.563c-0.276-0.141-0.578-0.21-0.906-0.21
			c-0.248,0-0.48,0.042-0.696,0.126s-0.416,0.197-0.6,0.342c-0.185,0.144-0.348,0.31-0.492,0.498
			c-0.144,0.188-0.264,0.386-0.36,0.594v1.944c0.032,0.216,0.118,0.418,0.259,0.605c0.14,0.188,0.308,0.351,0.504,0.486
			c0.195,0.136,0.408,0.244,0.636,0.324S250.685,201.978,250.893,201.978z"/>
		<path d="M255.428,195.018v-1.2h0.816v1.2H255.428z M255.428,202.578v-6.252h0.816v6.252H255.428z"/>
		<path d="M257.611,199.434c0-0.44,0.076-0.856,0.229-1.248c0.151-0.393,0.366-0.734,0.642-1.026c0.276-0.292,0.606-0.522,0.99-0.69
			s0.808-0.252,1.272-0.252c0.592,0,1.107,0.135,1.548,0.402c0.439,0.269,0.771,0.63,0.996,1.086l-0.792,0.252
			c-0.177-0.319-0.422-0.57-0.738-0.75s-0.666-0.27-1.05-0.27c-0.32,0-0.618,0.063-0.895,0.191c-0.275,0.128-0.516,0.303-0.72,0.522
			s-0.364,0.481-0.479,0.786c-0.116,0.304-0.175,0.636-0.175,0.996c0,0.352,0.061,0.684,0.181,0.995
			c0.12,0.312,0.283,0.582,0.491,0.811c0.208,0.228,0.45,0.408,0.727,0.54s0.57,0.198,0.882,0.198c0.2,0,0.397-0.028,0.594-0.084
			c0.196-0.057,0.378-0.135,0.546-0.234s0.312-0.214,0.433-0.342s0.204-0.265,0.252-0.408l0.804,0.24
			c-0.088,0.224-0.216,0.43-0.384,0.618c-0.168,0.188-0.366,0.352-0.594,0.491c-0.229,0.141-0.48,0.248-0.756,0.324
			c-0.276,0.076-0.562,0.114-0.858,0.114c-0.456,0-0.876-0.086-1.26-0.258c-0.385-0.172-0.717-0.408-0.996-0.708
			c-0.28-0.301-0.498-0.646-0.654-1.038S257.611,199.881,257.611,199.434z"/>
		<path d="M202.568,208.058h0.708l3.54,8.52h-0.888l-1.104-2.664h-3.828l-1.092,2.664h-0.9L202.568,208.058z M204.632,213.254
			l-1.716-4.212l-1.74,4.212H204.632z"/>
		<path d="M207.272,213.434c0-0.44,0.076-0.856,0.228-1.248c0.152-0.393,0.366-0.734,0.642-1.026s0.606-0.522,0.99-0.69
			c0.384-0.168,0.808-0.252,1.272-0.252c0.592,0,1.108,0.135,1.548,0.402c0.44,0.269,0.772,0.63,0.996,1.086l-0.792,0.252
			c-0.176-0.319-0.422-0.57-0.738-0.75c-0.316-0.18-0.666-0.27-1.05-0.27c-0.32,0-0.618,0.063-0.894,0.191s-0.516,0.303-0.72,0.522
			c-0.204,0.22-0.364,0.481-0.48,0.786c-0.116,0.304-0.174,0.636-0.174,0.996c0,0.352,0.06,0.684,0.18,0.995
			c0.12,0.312,0.284,0.582,0.492,0.811c0.208,0.228,0.45,0.408,0.726,0.54c0.276,0.132,0.57,0.198,0.882,0.198
			c0.2,0,0.397-0.028,0.594-0.084c0.196-0.057,0.378-0.135,0.546-0.234s0.312-0.214,0.432-0.342s0.204-0.265,0.252-0.408l0.804,0.24
			c-0.088,0.224-0.216,0.43-0.384,0.618c-0.168,0.188-0.366,0.352-0.594,0.491c-0.228,0.141-0.48,0.248-0.756,0.324
			c-0.276,0.076-0.562,0.114-0.858,0.114c-0.456,0-0.876-0.086-1.26-0.258c-0.384-0.172-0.716-0.408-0.996-0.708
			c-0.28-0.301-0.498-0.646-0.654-1.038C207.35,214.302,207.272,213.881,207.272,213.434z"/>
		<path d="M214.292,209.018v-1.2h0.816v1.2H214.292z M214.292,216.578v-6.252h0.816v6.252H214.292z"/>
		<path d="M219.476,216.698c-0.432,0-0.832-0.09-1.2-0.271c-0.368-0.18-0.684-0.418-0.948-0.714
			c-0.264-0.296-0.47-0.638-0.617-1.025c-0.148-0.389-0.223-0.794-0.223-1.219c0-0.439,0.072-0.857,0.216-1.254
			c0.145-0.396,0.343-0.741,0.595-1.038c0.252-0.296,0.552-0.529,0.899-0.701c0.349-0.173,0.73-0.259,1.146-0.259
			c0.527,0,0.996,0.139,1.404,0.414c0.407,0.276,0.728,0.61,0.96,1.002v-3.815h0.815v7.704c0,0.224,0.096,0.336,0.288,0.336v0.72
			c-0.12,0.024-0.216,0.036-0.288,0.036c-0.191,0-0.36-0.062-0.504-0.187c-0.144-0.124-0.216-0.273-0.216-0.449v-0.612
			c-0.248,0.408-0.584,0.731-1.008,0.972C220.371,216.578,219.932,216.698,219.476,216.698z M219.655,215.978
			c0.2,0,0.414-0.04,0.643-0.12c0.228-0.08,0.441-0.19,0.642-0.33s0.37-0.304,0.51-0.492c0.141-0.188,0.227-0.39,0.259-0.606v-1.932
			c-0.08-0.216-0.196-0.418-0.349-0.605c-0.152-0.188-0.326-0.354-0.521-0.498c-0.196-0.145-0.406-0.256-0.63-0.336
			c-0.225-0.08-0.444-0.12-0.66-0.12c-0.336,0-0.641,0.071-0.912,0.216c-0.272,0.144-0.506,0.334-0.702,0.57
			c-0.196,0.235-0.346,0.506-0.45,0.81c-0.104,0.304-0.156,0.616-0.156,0.936c0,0.336,0.061,0.656,0.181,0.96
			c0.12,0.305,0.283,0.57,0.492,0.799c0.207,0.228,0.453,0.41,0.737,0.546S219.327,215.978,219.655,215.978z"/>
	</g>
	<g>
		<path d="M321.442,202.578v-8.52h0.841v7.775h4.92v0.744H321.442z"/>
		<path d="M327.106,199.686v-0.757h3.505v0.757H327.106z"/>
		<path d="M332.458,202.578v-8.52h2.892c0.68,0,1.274,0.111,1.782,0.336c0.508,0.224,0.932,0.527,1.272,0.911
			c0.34,0.385,0.596,0.834,0.768,1.351c0.172,0.516,0.258,1.066,0.258,1.649c0,0.648-0.096,1.234-0.288,1.759
			c-0.191,0.523-0.466,0.972-0.821,1.344c-0.356,0.372-0.784,0.66-1.284,0.864s-1.062,0.306-1.687,0.306H332.458z M338.59,198.305
			c0-0.512-0.072-0.981-0.216-1.409c-0.145-0.429-0.354-0.799-0.63-1.11c-0.276-0.312-0.614-0.554-1.015-0.726
			c-0.399-0.172-0.859-0.259-1.38-0.259h-2.052v7.032h2.052c0.528,0,0.994-0.09,1.398-0.27c0.403-0.181,0.742-0.428,1.014-0.744
			c0.272-0.316,0.479-0.688,0.618-1.116S338.59,198.81,338.59,198.305z"/>
		<path d="M340.87,195.018v-1.2h0.815v1.2H340.87z M340.87,202.578v-6.252h0.815v6.252H340.87z"/>
		<path d="M347.949,202.578l-2.304-3.204l-1.344,1.248v1.956h-0.816v-8.76h0.816v5.952l3.516-3.433h0.924l-2.556,2.557l2.652,3.684
			H347.949z"/>
		<path d="M352.222,202.698c-0.456,0-0.874-0.086-1.254-0.258s-0.71-0.408-0.99-0.708c-0.28-0.301-0.498-0.646-0.653-1.038
			c-0.156-0.392-0.234-0.812-0.234-1.26c0-0.44,0.078-0.854,0.234-1.242c0.155-0.389,0.372-0.729,0.647-1.021
			c0.276-0.292,0.606-0.523,0.99-0.695c0.384-0.173,0.8-0.259,1.248-0.259c0.456,0,0.874,0.086,1.254,0.259
			c0.38,0.172,0.706,0.405,0.978,0.701c0.272,0.297,0.484,0.637,0.637,1.021c0.151,0.384,0.228,0.792,0.228,1.224
			c0,0.064,0,0.128,0,0.192s-0.004,0.107-0.012,0.132h-5.353c0.024,0.336,0.103,0.646,0.234,0.93c0.132,0.284,0.302,0.53,0.51,0.738
			s0.446,0.37,0.714,0.486c0.269,0.116,0.555,0.174,0.858,0.174c0.2,0,0.4-0.028,0.6-0.084c0.2-0.056,0.385-0.132,0.553-0.229
			c0.168-0.096,0.319-0.214,0.456-0.354c0.136-0.14,0.239-0.294,0.312-0.462l0.708,0.191c-0.096,0.232-0.232,0.442-0.408,0.631
			c-0.176,0.188-0.38,0.352-0.611,0.491c-0.232,0.141-0.488,0.248-0.769,0.324S352.526,202.698,352.222,202.698z M354.526,199.122
			c-0.023-0.336-0.102-0.642-0.233-0.918s-0.3-0.514-0.504-0.714s-0.44-0.356-0.708-0.468c-0.269-0.112-0.555-0.168-0.858-0.168
			s-0.592,0.056-0.864,0.168c-0.271,0.111-0.51,0.268-0.714,0.468s-0.368,0.44-0.492,0.72c-0.124,0.28-0.197,0.584-0.222,0.912
			H354.526z"/>
		<path d="M359.518,202.278c-0.048,0.023-0.118,0.056-0.21,0.096s-0.197,0.08-0.317,0.12s-0.257,0.076-0.408,0.108
			c-0.152,0.031-0.312,0.048-0.48,0.048c-0.176,0-0.344-0.024-0.504-0.072s-0.3-0.122-0.42-0.222
			c-0.12-0.101-0.216-0.227-0.288-0.378c-0.071-0.152-0.107-0.328-0.107-0.528v-4.476h-0.864v-0.648h0.864v-2.112h0.815v2.112h1.44
			v0.648h-1.44v4.247c0.017,0.232,0.098,0.402,0.246,0.511c0.148,0.107,0.318,0.162,0.51,0.162c0.232,0,0.437-0.038,0.612-0.114
			s0.288-0.13,0.336-0.162L359.518,202.278z"/>
		<path d="M363.046,202.698c-0.456,0-0.872-0.086-1.248-0.258s-0.702-0.406-0.979-0.702c-0.275-0.296-0.49-0.64-0.642-1.032
			c-0.152-0.392-0.229-0.804-0.229-1.236c0-0.439,0.078-0.855,0.234-1.248c0.156-0.392,0.372-0.735,0.648-1.031
			c0.275-0.296,0.602-0.532,0.978-0.708s0.788-0.265,1.236-0.265c0.447,0,0.861,0.089,1.242,0.265
			c0.38,0.176,0.708,0.412,0.983,0.708c0.276,0.296,0.492,0.64,0.648,1.031c0.156,0.393,0.233,0.809,0.233,1.248
			c0,0.433-0.076,0.845-0.228,1.236c-0.152,0.393-0.366,0.736-0.643,1.032c-0.275,0.296-0.604,0.53-0.983,0.702
			S363.502,202.698,363.046,202.698z M360.777,199.482c0,0.352,0.061,0.678,0.181,0.978s0.281,0.564,0.485,0.792
			c0.204,0.229,0.444,0.406,0.721,0.534c0.275,0.128,0.569,0.192,0.882,0.192c0.312,0,0.605-0.066,0.882-0.198
			s0.518-0.312,0.726-0.54c0.208-0.229,0.372-0.494,0.492-0.798s0.181-0.632,0.181-0.984c0-0.344-0.061-0.67-0.181-0.978
			c-0.12-0.309-0.284-0.576-0.492-0.805c-0.208-0.228-0.449-0.407-0.726-0.54c-0.276-0.132-0.57-0.197-0.882-0.197
			c-0.312,0-0.604,0.065-0.876,0.197c-0.272,0.133-0.513,0.314-0.721,0.546c-0.208,0.232-0.371,0.503-0.491,0.811
			S360.777,199.129,360.777,199.482z"/>
		<path d="M370.029,202.662c-0.432,0-0.826-0.09-1.182-0.27c-0.356-0.181-0.664-0.418-0.925-0.715
			c-0.26-0.296-0.462-0.636-0.605-1.02c-0.145-0.384-0.216-0.78-0.216-1.188c0-0.432,0.069-0.846,0.21-1.241
			c0.14-0.396,0.338-0.742,0.594-1.038s0.562-0.532,0.918-0.708s0.75-0.265,1.182-0.265c0.536,0,1,0.135,1.393,0.402
			c0.392,0.269,0.728,0.606,1.008,1.014v-1.308h0.732v6.276c0,0.432-0.082,0.813-0.246,1.146s-0.384,0.61-0.66,0.834
			s-0.601,0.392-0.972,0.504c-0.372,0.112-0.767,0.168-1.183,0.168c-0.72,0-1.3-0.128-1.74-0.384
			c-0.439-0.256-0.796-0.6-1.067-1.032l0.504-0.396c0.248,0.399,0.576,0.693,0.984,0.882c0.407,0.188,0.848,0.282,1.319,0.282
			c0.304,0,0.592-0.042,0.864-0.126c0.271-0.084,0.51-0.208,0.714-0.372s0.366-0.372,0.486-0.624s0.18-0.546,0.18-0.882v-1.236
			c-0.24,0.4-0.568,0.716-0.984,0.948C370.921,202.546,370.485,202.662,370.029,202.662z M370.258,201.978
			c0.239,0,0.476-0.044,0.708-0.133c0.231-0.088,0.441-0.205,0.63-0.354c0.188-0.148,0.346-0.313,0.474-0.498
			c0.128-0.184,0.212-0.372,0.252-0.564v-1.932c-0.088-0.224-0.208-0.432-0.36-0.624c-0.151-0.192-0.323-0.355-0.516-0.492
			c-0.192-0.136-0.398-0.243-0.618-0.323s-0.442-0.12-0.666-0.12c-0.352,0-0.666,0.073-0.941,0.222
			c-0.276,0.148-0.511,0.342-0.702,0.582c-0.192,0.24-0.338,0.512-0.438,0.816c-0.1,0.304-0.149,0.611-0.149,0.924
			c0,0.336,0.06,0.656,0.18,0.96s0.286,0.569,0.498,0.798c0.212,0.228,0.458,0.408,0.738,0.54
			C369.625,201.912,369.93,201.978,370.258,201.978z"/>
		<path d="M376.894,202.698c-0.681,0-1.187-0.226-1.519-0.678s-0.498-1.126-0.498-2.022v-3.672h0.816v3.528
			c0,1.416,0.484,2.124,1.452,2.124c0.24,0,0.476-0.04,0.708-0.12c0.231-0.08,0.445-0.196,0.642-0.349
			c0.196-0.151,0.372-0.331,0.528-0.54c0.156-0.208,0.282-0.443,0.378-0.708v-3.936h0.816v5.196c0,0.224,0.096,0.336,0.287,0.336
			v0.72c-0.096,0.016-0.174,0.024-0.233,0.024c-0.061,0-0.103,0-0.126,0c-0.192-0.009-0.349-0.076-0.468-0.204
			c-0.12-0.128-0.181-0.301-0.181-0.517v-0.72c-0.271,0.488-0.642,0.866-1.109,1.134
			C377.919,202.564,377.421,202.698,376.894,202.698z"/>
		<path d="M382.102,193.818h0.815v7.344c0,0.232,0.064,0.414,0.192,0.546s0.308,0.198,0.54,0.198c0.088,0,0.191-0.012,0.312-0.036
			s0.232-0.056,0.336-0.096l0.145,0.66c-0.152,0.063-0.338,0.115-0.559,0.155c-0.22,0.04-0.409,0.061-0.569,0.061
			c-0.376,0-0.672-0.106-0.889-0.318c-0.216-0.212-0.323-0.51-0.323-0.894V193.818z"/>
		<path d="M387.993,202.698c-0.456,0-0.872-0.086-1.248-0.258s-0.702-0.406-0.979-0.702c-0.275-0.296-0.49-0.64-0.642-1.032
			c-0.152-0.392-0.229-0.804-0.229-1.236c0-0.439,0.078-0.855,0.234-1.248c0.156-0.392,0.372-0.735,0.648-1.031
			c0.275-0.296,0.602-0.532,0.978-0.708s0.788-0.265,1.236-0.265c0.447,0,0.861,0.089,1.242,0.265
			c0.38,0.176,0.708,0.412,0.983,0.708c0.276,0.296,0.492,0.64,0.648,1.031c0.156,0.393,0.233,0.809,0.233,1.248
			c0,0.433-0.076,0.845-0.228,1.236c-0.152,0.393-0.366,0.736-0.643,1.032c-0.275,0.296-0.604,0.53-0.983,0.702
			S388.449,202.698,387.993,202.698z M385.725,199.482c0,0.352,0.061,0.678,0.181,0.978s0.281,0.564,0.485,0.792
			c0.204,0.229,0.444,0.406,0.721,0.534c0.275,0.128,0.569,0.192,0.882,0.192c0.312,0,0.605-0.066,0.882-0.198
			s0.518-0.312,0.726-0.54c0.208-0.229,0.372-0.494,0.492-0.798s0.181-0.632,0.181-0.984c0-0.344-0.061-0.67-0.181-0.978
			c-0.12-0.309-0.284-0.576-0.492-0.805c-0.208-0.228-0.449-0.407-0.726-0.54c-0.276-0.132-0.57-0.197-0.882-0.197
			c-0.312,0-0.604,0.065-0.876,0.197c-0.272,0.133-0.513,0.314-0.721,0.546c-0.208,0.232-0.371,0.503-0.491,0.811
			S385.725,199.129,385.725,199.482z"/>
		<path d="M397.725,202.578h-0.816v-3.492c0-0.744-0.109-1.284-0.33-1.62c-0.22-0.336-0.558-0.504-1.014-0.504
			c-0.24,0-0.479,0.044-0.72,0.132c-0.24,0.089-0.462,0.213-0.666,0.372c-0.204,0.16-0.386,0.351-0.546,0.57
			s-0.276,0.458-0.349,0.714v3.828h-0.815v-6.252h0.744v1.416c0.256-0.456,0.622-0.824,1.098-1.104
			c0.476-0.279,0.994-0.42,1.554-0.42c0.344,0,0.637,0.064,0.876,0.192c0.24,0.128,0.433,0.308,0.576,0.54
			c0.145,0.232,0.248,0.516,0.312,0.852c0.063,0.336,0.096,0.708,0.096,1.116V202.578z"/>
		<path d="M399.465,195.018v-1.2h0.815v1.2H399.465z M399.465,202.578v-6.252h0.815v6.252H399.465z"/>
		<path d="M401.649,199.434c0-0.44,0.076-0.856,0.228-1.248c0.152-0.393,0.366-0.734,0.643-1.026c0.275-0.292,0.605-0.522,0.99-0.69
			c0.384-0.168,0.808-0.252,1.271-0.252c0.592,0,1.108,0.135,1.548,0.402c0.44,0.269,0.772,0.63,0.996,1.086l-0.792,0.252
			c-0.176-0.319-0.422-0.57-0.738-0.75c-0.315-0.18-0.665-0.27-1.05-0.27c-0.319,0-0.618,0.063-0.894,0.191
			c-0.276,0.128-0.517,0.303-0.72,0.522c-0.204,0.22-0.364,0.481-0.48,0.786c-0.116,0.304-0.174,0.636-0.174,0.996
			c0,0.352,0.06,0.684,0.18,0.995c0.12,0.312,0.284,0.582,0.492,0.811c0.208,0.228,0.45,0.408,0.726,0.54
			c0.276,0.132,0.57,0.198,0.883,0.198c0.199,0,0.397-0.028,0.594-0.084c0.195-0.057,0.378-0.135,0.546-0.234
			s0.312-0.214,0.432-0.342s0.204-0.265,0.252-0.408l0.805,0.24c-0.089,0.224-0.217,0.43-0.385,0.618
			c-0.168,0.188-0.365,0.352-0.594,0.491c-0.228,0.141-0.479,0.248-0.756,0.324s-0.562,0.114-0.858,0.114
			c-0.456,0-0.876-0.086-1.26-0.258s-0.716-0.408-0.996-0.708c-0.28-0.301-0.498-0.646-0.653-1.038
			C401.727,200.302,401.649,199.881,401.649,199.434z"/>
		<path d="M355.474,208.058h0.708l3.54,8.52h-0.889l-1.104-2.664h-3.828l-1.092,2.664h-0.9L355.474,208.058z M357.537,213.254
			l-1.716-4.212l-1.74,4.212H357.537z"/>
		<path d="M360.177,213.434c0-0.44,0.076-0.856,0.229-1.248c0.151-0.393,0.366-0.734,0.642-1.026c0.276-0.292,0.606-0.522,0.99-0.69
			s0.808-0.252,1.272-0.252c0.592,0,1.107,0.135,1.548,0.402c0.439,0.269,0.771,0.63,0.996,1.086l-0.792,0.252
			c-0.177-0.319-0.422-0.57-0.738-0.75s-0.666-0.27-1.05-0.27c-0.32,0-0.618,0.063-0.895,0.191c-0.275,0.128-0.516,0.303-0.72,0.522
			s-0.364,0.481-0.479,0.786c-0.116,0.304-0.175,0.636-0.175,0.996c0,0.352,0.061,0.684,0.181,0.995
			c0.12,0.312,0.283,0.582,0.491,0.811c0.208,0.228,0.45,0.408,0.727,0.54s0.57,0.198,0.882,0.198c0.2,0,0.397-0.028,0.594-0.084
			c0.196-0.057,0.378-0.135,0.546-0.234s0.312-0.214,0.433-0.342s0.204-0.265,0.252-0.408l0.804,0.24
			c-0.088,0.224-0.216,0.43-0.384,0.618c-0.168,0.188-0.366,0.352-0.594,0.491c-0.229,0.141-0.48,0.248-0.756,0.324
			c-0.276,0.076-0.562,0.114-0.858,0.114c-0.456,0-0.876-0.086-1.26-0.258c-0.385-0.172-0.717-0.408-0.996-0.708
			c-0.28-0.301-0.498-0.646-0.654-1.038S360.177,213.881,360.177,213.434z"/>
		<path d="M367.197,209.018v-1.2h0.815v1.2H367.197z M367.197,216.578v-6.252h0.815v6.252H367.197z"/>
		<path d="M372.381,216.698c-0.432,0-0.832-0.09-1.2-0.271c-0.368-0.18-0.684-0.418-0.948-0.714
			c-0.264-0.296-0.47-0.638-0.617-1.025c-0.148-0.389-0.223-0.794-0.223-1.219c0-0.439,0.072-0.857,0.216-1.254
			c0.145-0.396,0.343-0.741,0.595-1.038c0.252-0.296,0.552-0.529,0.899-0.701c0.349-0.173,0.73-0.259,1.146-0.259
			c0.527,0,0.996,0.139,1.404,0.414c0.407,0.276,0.728,0.61,0.96,1.002v-3.815h0.815v7.704c0,0.224,0.096,0.336,0.288,0.336v0.72
			c-0.12,0.024-0.216,0.036-0.288,0.036c-0.191,0-0.36-0.062-0.504-0.187c-0.144-0.124-0.216-0.273-0.216-0.449v-0.612
			c-0.248,0.408-0.584,0.731-1.008,0.972C373.276,216.578,372.837,216.698,372.381,216.698z M372.561,215.978
			c0.2,0,0.414-0.04,0.643-0.12c0.228-0.08,0.441-0.19,0.642-0.33s0.37-0.304,0.51-0.492c0.141-0.188,0.227-0.39,0.259-0.606v-1.932
			c-0.08-0.216-0.196-0.418-0.349-0.605c-0.152-0.188-0.326-0.354-0.521-0.498c-0.196-0.145-0.406-0.256-0.63-0.336
			c-0.225-0.08-0.444-0.12-0.66-0.12c-0.336,0-0.641,0.071-0.912,0.216c-0.272,0.144-0.506,0.334-0.702,0.57
			c-0.196,0.235-0.346,0.506-0.45,0.81c-0.104,0.304-0.156,0.616-0.156,0.936c0,0.336,0.061,0.656,0.181,0.96
			c0.12,0.305,0.283,0.57,0.492,0.799c0.207,0.228,0.453,0.41,0.737,0.546S372.233,215.978,372.561,215.978z"/>
	</g>
</g>
<g>
</g>
</svg>
