<?xml version="1.0" encoding="utf-8"?>
<svg xmlns="http://www.w3.org/2000/svg" viewBox="0 0 13 13" style="enable-background:new 0 0 13 13;" xml:space="preserve">
<g>
	<circle style="fill:#FFFFFF;" cx="6.5" cy="6.5" r="6.083"/>
	<path style="fill:#808081;" d="M4.462,8.809c-0.1,0-0.198-0.039-0.272-0.117c-0.143-0.15-0.136-0.388,0.015-0.53L8.28,4.294
		c0.15-0.141,0.388-0.136,0.53,0.015s0.136,0.388-0.015,0.53L4.72,8.706C4.647,8.774,4.555,8.809,4.462,8.809z"/>
	<path style="fill:#808081;" d="M8.434,8.913c-0.1,0-0.198-0.039-0.272-0.117L4.294,4.72c-0.143-0.15-0.136-0.388,0.015-0.53
		c0.15-0.141,0.388-0.135,0.53,0.015L8.706,8.28c0.143,0.15,0.136,0.388-0.015,0.53C8.619,8.879,8.526,8.913,8.434,8.913z"/>
</g>
</svg>
