<svg version="1.1" id="Layer_1" xmlns="http://www.w3.org/2000/svg" xmlns:xlink="http://www.w3.org/1999/xlink"
     preserveAspectRatio="xMinYMin meet" viewBox="0 0 22 18.3" style="enable-background:new 0 0 22 18.3;" xml:space="preserve">
<style type="text/css">
    .st0
    {
        fill: #fff;
    }
</style>
<g>
<path class="st0" d="M6.8,8.8C6.5,8.8,6.3,9,6.3,9.3l0.6,6.9c0,0.3,0.3,0.5,0.5,0.5c0,0,0,0,0,0c0.3,0,0.5-0.3,0.5-0.6L7.3,9.2
		C7.3,8.9,7.1,8.7,6.8,8.8z" />
<path class="st0" d="M11.1,10.6C11.1,10.6,11.1,10.6,11.1,10.6c-0.3,0-0.5,0.2-0.5,0.5l-0.1,5.1c0,0.3,0.2,0.5,0.5,0.5c0,0,0,0,0,0
		c0.3,0,0.5-0.2,0.5-0.5l0.1-5.1C11.6,10.8,11.4,10.6,11.1,10.6z" />
<path class="st0" d="M14.5,16.7C14.5,16.7,14.5,16.7,14.5,16.7c0.3,0,0.5-0.2,0.6-0.5l0.8-6.9c0-0.3-0.2-0.5-0.5-0.6
		c-0.3,0-0.5,0.2-0.6,0.5L14,16.2C14,16.4,14.2,16.7,14.5,16.7z" />
<path class="st0" d="M15.4,0.7c0.1-0.3,0-0.6-0.2-0.7c-0.3-0.1-0.6,0-0.7,0.2l-3,6.3H2.2H0.5C0.2,6.6,0,6.8,0,7.1
		c0,0.3,0.2,0.5,0.5,0.5h1.2l1.8,10.3c0,0.2,0.3,0.4,0.5,0.4h13.8c0.3,0,0.5-0.2,0.5-0.4l1.8-10.3h1.2c0.3,0,0.5-0.2,0.5-0.5
		c0-0.3-0.2-0.5-0.5-0.5h-1.7h-7.2L15.4,0.7z M19.2,7.6l-1.7,9.7H4.5L2.8,7.6H11l-0.4,0.9c-0.1,0.3,0,0.6,0.2,0.7c0.1,0,0.1,0,0.2,0
		c0.2,0,0.4-0.1,0.5-0.3l0.6-1.3H19.2z" />
</g>
</svg>
