<?xml version="1.0" encoding="utf-8"?>
<!-- Generator: Adobe Illustrator 19.1.0, SVG Export Plug-In . SVG Version: 6.00 Build 0)  -->
<svg version="1.1" id="Layer_1" xmlns="http://www.w3.org/2000/svg" xmlns:xlink="http://www.w3.org/1999/xlink" x="0px" y="0px"
	 viewBox="0 0 101 92" style="enable-background:new 0 0 101 92;" xml:space="preserve">
<style type="text/css">
	.st0{fill:#E0DDD9;}
</style>
<g>
	<path class="st0" d="M46.1,35.8c0.1,0.2,0.3,0.4,0.6,0.7c0.2,0.3,0.5,0.6,0.9,1c0.8-0.5,1.4-1,1.8-1.5c0.4-0.5,0.6-1,0.6-1.5
		c0-0.6-0.2-1-0.6-1.4c-0.4-0.3-0.9-0.5-1.5-0.5c-0.7,0-1.2,0.2-1.6,0.6c-0.4,0.4-0.6,0.9-0.6,1.5c0,0.2,0,0.4,0.1,0.5
		C45.8,35.4,45.9,35.6,46.1,35.8z"/>
	<polygon class="st0" points="68.9,43.4 75.1,43.4 72,34.7 	"/>
	<path class="st0" d="M86.3,13C78.6,6.1,69.4,2.4,59.2,0.9c-11-1.5-21.7-0.3-31.9,4.2C17.3,9.4,9.2,16,4.4,25.9
		C-1.9,39-0.4,51.6,8.1,63.3c7.1,9.6,17,15.2,28.4,17.9c12,2.9,23.8,2.1,35.4-2.4c0.3-0.1,0.6-0.2,1.3-0.4
		c-0.8,4.6-1.6,8.9-2.4,13.3c1.6-1.1,3.1-2.2,4.7-3.4c8.1-6.1,14.9-13.4,19.5-22.5c3.4-6.7,5.5-13.7,5.5-21.3
		C100.4,32,95.6,21.5,86.3,13z M34.3,51.9L33,50.4c-0.8,0.5-1.7,0.9-2.6,1.2c-0.9,0.3-1.9,0.4-3,0.4c-1.6,0-3.1-0.3-4.4-1
		c-1.3-0.6-2.4-1.5-3.4-2.5c-0.9-1-1.7-2.2-2.2-3.6c-0.5-1.3-0.8-2.7-0.8-4.1c0-1.5,0.3-2.9,0.8-4.2c0.5-1.3,1.3-2.5,2.3-3.6
		c1-1,2.1-1.9,3.4-2.5c1.3-0.6,2.8-0.9,4.3-0.9c1.6,0,3,0.3,4.4,1c1.3,0.7,2.4,1.5,3.4,2.6c0.9,1.1,1.7,2.3,2.2,3.6
		c0.5,1.3,0.8,2.7,0.8,4.1c0,1.4-0.3,2.8-0.8,4.1c-0.5,1.3-1.2,2.5-2.1,3.5l3,3.4H34.3z M55.8,51.9L54.1,50
		c-0.9,0.7-1.9,1.2-2.9,1.6c-1.1,0.4-2.1,0.5-3.3,0.5c-1.1,0-2.2-0.2-3.1-0.5c-0.9-0.4-1.7-0.8-2.3-1.4c-0.6-0.6-1.1-1.3-1.5-2.1
		c-0.4-0.8-0.5-1.6-0.5-2.5c0-0.7,0.1-1.3,0.3-1.9c0.2-0.6,0.5-1.1,0.9-1.6c0.4-0.5,0.8-0.9,1.2-1.4c0.5-0.4,1-0.8,1.5-1.1
		c-0.9-1-1.5-1.8-1.9-2.6c-0.4-0.7-0.5-1.5-0.5-2.3c0-0.8,0.2-1.5,0.5-2.2c0.3-0.7,0.7-1.2,1.3-1.7c0.5-0.5,1.2-0.8,1.9-1.1
		c0.7-0.2,1.5-0.4,2.4-0.4c0.8,0,1.5,0.1,2.2,0.3c0.7,0.2,1.3,0.5,1.9,0.9c0.5,0.4,1,0.9,1.3,1.5c0.3,0.6,0.5,1.3,0.5,2.1
		c0,1.2-0.4,2.3-1.1,3.2c-0.7,0.9-1.6,1.7-2.7,2.5l4.2,4.4c0.3-0.7,0.6-1.4,0.7-2.2c0.2-0.8,0.3-1.6,0.3-2.5h3.4
		c0,1.5-0.2,2.8-0.5,4c-0.3,1.2-0.8,2.3-1.4,3.3l4.6,4.8H55.8z M77.9,51.9l-2-5.5h-7.7l-2,5.5h-4.4l8.4-22h3.8l8.4,22H77.9z"/>
	<path class="st0" d="M32.2,35.7c-0.5-0.7-1.2-1.2-2-1.6c-0.8-0.4-1.7-0.6-2.7-0.6c-1,0-2,0.2-2.8,0.6c-0.8,0.4-1.5,1-2,1.7
		c-0.5,0.7-0.9,1.5-1.2,2.4c-0.3,0.9-0.4,1.8-0.4,2.7c0,1,0.1,1.9,0.4,2.8c0.3,0.9,0.7,1.7,1.3,2.4c0.5,0.7,1.2,1.2,2,1.6
		c0.8,0.4,1.7,0.6,2.7,0.6c0.6,0,1.1-0.1,1.6-0.2c0.5-0.1,0.9-0.3,1.4-0.5L27,43.7h4l1.5,1.7c0.4-0.7,0.7-1.4,1-2.2
		c0.2-0.8,0.3-1.6,0.3-2.4c0-1-0.2-1.9-0.4-2.8C33.2,37.2,32.7,36.4,32.2,35.7z"/>
	<path class="st0" d="M45.1,43.9c-0.4,0.5-0.6,1.1-0.6,1.8c0,0.4,0.1,0.9,0.3,1.3c0.2,0.4,0.5,0.8,0.8,1c0.3,0.3,0.8,0.5,1.2,0.7
		c0.5,0.2,1,0.3,1.6,0.3c1.3,0,2.5-0.4,3.6-1.3l-5.1-5.4C46,42.8,45.5,43.3,45.1,43.9z"/>
</g>
</svg>
