<?xml version="1.0" encoding="utf-8"?>
<!-- Generator: Adobe Illustrator 19.1.0, SVG Export Plug-In . SVG Version: 6.00 Build 0)  -->
<svg version="1.1" id="Layer_1" xmlns="http://www.w3.org/2000/svg" xmlns:xlink="http://www.w3.org/1999/xlink" x="0px" y="0px"
	 viewBox="0 0 201 138" style="enable-background:new 0 0 201 138;" xml:space="preserve">
<style type="text/css">
	.st0{fill:#FFFFFF;}
</style>
<g>
	<g>
		<path class="st0" d="M68.541,59.38c12.822,8.247,19.243,19.358,19.243,33.334c0,13.981-4.124,24.977-12.371,32.989
			c-8.247,8.023-18.556,12.026-30.928,12.026c-12.371,0-22.798-3.888-31.271-11.684C4.73,118.26,0.5,108.069,0.5,95.463
			c0-12.601,4.124-24.851,12.371-36.773l40.55-58.418h41.925L68.541,59.38z M173.695,59.38
			c12.822,8.247,19.245,19.358,19.245,33.334c0,13.981-4.124,24.977-12.372,32.989c-8.247,8.023-18.556,12.026-30.927,12.026
			c-12.372,0-22.799-3.888-31.272-11.684c-8.483-7.784-12.714-17.975-12.714-30.582c0-12.601,4.124-24.851,12.371-36.773
			l40.55-58.418H200.5L173.695,59.38z"/>
	</g>
</g>
<g>
</g>
<g>
</g>
<g>
</g>
<g>
</g>
<g>
</g>
<g>
</g>
</svg>
