<?xml version="1.0" encoding="utf-8"?>
<!-- Generator: Adobe Illustrator 19.1.0, SVG Export Plug-In . SVG Version: 6.00 Build 0)  -->
<svg version="1.1" id="Layer_1" xmlns="http://www.w3.org/2000/svg" xmlns:xlink="http://www.w3.org/1999/xlink" x="0px" y="0px"
	 viewBox="0 0 201 138" style="enable-background:new 0 0 201 138;" xml:space="preserve">
<style type="text/css">
	.st0{fill:#FFFFFF;}
</style>
<g>
	<g>
		<path class="st0" d="M132.459,78.62c-12.822-8.247-19.243-19.358-19.243-33.334c0-13.981,4.124-24.977,12.371-32.989
			c8.247-8.023,18.556-12.026,30.928-12.026c12.371,0,22.798,3.888,31.271,11.684C196.27,19.74,200.5,29.931,200.5,42.537
			c0,12.601-4.124,24.851-12.371,36.773l-40.55,58.418h-41.925L132.459,78.62z M27.305,78.62C14.483,70.373,8.06,59.262,8.06,45.286
			c0-13.981,4.124-24.977,12.372-32.989C28.679,4.275,38.988,0.272,51.359,0.272c12.372,0,22.799,3.888,31.272,11.684
			c8.483,7.784,12.714,17.975,12.714,30.582c0,12.601-4.124,24.851-12.371,36.773l-40.55,58.418H0.5L27.305,78.62z"/>
	</g>
</g>
<g>
</g>
<g>
</g>
<g>
</g>
<g>
</g>
<g>
</g>
<g>
</g>
</svg>
