<?xml version="1.0" encoding="utf-8"?>
<!-- Generator: Adobe Illustrator 19.1.0, SVG Export Plug-In . SVG Version: 6.00 Build 0)  -->
<svg version="1.1" id="Layer_1" xmlns="http://www.w3.org/2000/svg" xmlns:xlink="http://www.w3.org/1999/xlink" x="0px" y="0px"
	 viewBox="0 0 101 92" style="enable-background:new 0 0 101 92;" xml:space="preserve">
<style type="text/css">
	.st0{fill:#E0DDD9;}
</style>
<g>
	<path class="st0" d="M86.3,13C78.6,6.1,69.4,2.4,59.2,0.9c-11-1.5-21.7-0.3-31.9,4.2C17.3,9.4,9.2,16,4.4,25.9
		C-1.9,39-0.4,51.6,8.1,63.3c7.1,9.6,17,15.2,28.4,17.9c12,2.9,23.8,2.1,35.4-2.4c0.3-0.1,0.6-0.2,1.3-0.4
		c-0.8,4.6-1.6,8.9-2.4,13.3c1.6-1.1,3.1-2.2,4.7-3.4c8.1-6.1,14.9-13.4,19.5-22.5c3.4-6.7,5.5-13.7,5.5-21.3
		C100.4,32,95.6,21.5,86.3,13z M30.2,47.5L25,44.8l-5.2,2.7l1-5.8l-4.2-4.1l5.8-0.8l2.6-5.3l2.6,5.3l5.8,0.8l-4.2,4.1L30.2,47.5z
		 M55.1,47.5l-5.2-2.7l-5.2,2.7l1-5.8l-4.2-4.1l5.8-0.8l2.6-5.3l2.6,5.3l5.8,0.8l-4.2,4.1L55.1,47.5z M79.9,47.5l-5.2-2.7l-5.2,2.7
		l1-5.8l-4.2-4.1l5.8-0.8l2.6-5.3l2.6,5.3l5.8,0.8l-4.2,4.1L79.9,47.5z"/>
</g>
</svg>
