<?xml version="1.0" encoding="utf-8"?>
<!-- Generator: Adobe Illustrator 19.1.0, SVG Export Plug-In . SVG Version: 6.00 Build 0)  -->
<svg version="1.1" id="Layer_1" xmlns="http://www.w3.org/2000/svg" xmlns:xlink="http://www.w3.org/1999/xlink" x="0px" y="0px"
	 viewBox="0 0 36 66" style="enable-background:new 0 0 36 66;" xml:space="preserve">
<style type="text/css">
	.st0{fill:#A2988E;}
	.st1{fill:none;stroke:#FFFFFF;stroke-width:0.6348;stroke-linecap:round;stroke-linejoin:round;stroke-miterlimit:10;}
</style>
<g>
	<path class="st0" d="M29.143,51.813c0,0,0,10.514,0,11.532c0,1.018-1.311,2.235-3.147,2.235s-8.002,0-8.002,0s-6.166,0-8.002,0
		s-3.147-1.217-3.147-2.235c0-1.018,0-11.532,0-11.532"/>
	<g>
		<g>
			<path class="st0" d="M18,4.108h17.739c-2.685,8.426-3.898,29.979-4.325,44.159c-0.033,1.08-0.149,2.35-0.821,2.872H18H5.407
				c-0.671-0.522-0.787-1.791-0.82-2.872C4.159,34.087,2.946,12.534,0.262,4.108H18z"/>
		</g>
	</g>
	<g>
		<polygon class="st0" points="1.205,0.58 0.74,0.58 0.262,3.943 0.74,3.943 		"/>
		<polygon class="st0" points="1.686,0.58 1.234,3.943 1.712,3.943 2.151,0.58 		"/>
		<polygon class="st0" points="2.632,0.58 2.206,3.943 2.684,3.943 3.097,0.58 		"/>
		<polygon class="st0" points="3.578,0.58 3.178,3.943 3.656,3.943 4.043,0.58 		"/>
		<polygon class="st0" points="4.524,0.58 4.15,3.943 4.629,3.943 4.989,0.58 		"/>
		<polygon class="st0" points="5.47,0.58 5.123,3.943 5.601,3.943 5.935,0.58 		"/>
		<polygon class="st0" points="6.416,0.58 6.095,3.943 6.573,3.943 6.881,0.58 		"/>
		<polygon class="st0" points="7.362,0.58 7.067,3.943 7.545,3.943 7.827,0.58 		"/>
		<polygon class="st0" points="8.308,0.58 8.039,3.943 8.517,3.943 8.773,0.58 		"/>
		<polygon class="st0" points="9.254,0.58 9.011,3.943 9.49,3.943 9.719,0.58 		"/>
		<polygon class="st0" points="10.2,0.58 9.983,3.943 10.462,3.943 10.665,0.58 		"/>
		<polygon class="st0" points="11.145,0.58 10.956,3.943 11.434,3.943 11.611,0.58 		"/>
		<polygon class="st0" points="12.091,0.58 11.928,3.943 12.406,3.943 12.557,0.58 		"/>
		<polygon class="st0" points="13.037,0.58 12.9,3.943 13.378,3.943 13.503,0.58 		"/>
		<polygon class="st0" points="13.983,0.58 13.872,3.943 14.35,3.943 14.449,0.58 		"/>
		<polygon class="st0" points="14.929,0.58 14.844,3.943 15.323,3.943 15.395,0.58 		"/>
		<polygon class="st0" points="15.875,0.58 15.817,3.943 16.295,3.943 16.341,0.58 		"/>
		<polygon class="st0" points="16.821,0.58 16.789,3.943 17.267,3.943 17.287,0.58 		"/>
		<polygon class="st0" points="17.767,0.58 17.761,3.943 18.239,3.943 18.233,0.58 		"/>
		<polygon class="st0" points="18.713,0.58 18.733,3.943 19.211,3.943 19.179,0.58 		"/>
		<polygon class="st0" points="19.659,0.58 19.705,3.943 20.183,3.943 20.125,0.58 		"/>
		<polygon class="st0" points="20.605,0.58 20.677,3.943 21.156,3.943 21.071,0.58 		"/>
		<polygon class="st0" points="21.551,0.58 21.65,3.943 22.128,3.943 22.017,0.58 		"/>
		<polygon class="st0" points="22.497,0.58 22.622,3.943 23.1,3.943 22.963,0.58 		"/>
		<polygon class="st0" points="23.443,0.58 23.594,3.943 24.072,3.943 23.908,0.58 		"/>
		<polygon class="st0" points="24.389,0.58 24.566,3.943 25.044,3.943 24.854,0.58 		"/>
		<polygon class="st0" points="25.335,0.58 25.538,3.943 26.017,3.943 25.8,0.58 		"/>
		<polygon class="st0" points="26.281,0.58 26.51,3.943 26.989,3.943 26.746,0.58 		"/>
		<polygon class="st0" points="27.227,0.58 27.483,3.943 27.961,3.943 27.692,0.58 		"/>
		<polygon class="st0" points="28.173,0.58 28.455,3.943 28.933,3.943 28.638,0.58 		"/>
		<polygon class="st0" points="29.119,0.58 29.427,3.943 29.905,3.943 29.584,0.58 		"/>
		<polygon class="st0" points="30.065,0.58 30.399,3.943 30.877,3.943 30.53,0.58 		"/>
		<polygon class="st0" points="31.011,0.58 31.371,3.943 31.85,3.943 31.476,0.58 		"/>
		<polygon class="st0" points="31.957,0.58 32.344,3.943 32.822,3.943 32.422,0.58 		"/>
		<polygon class="st0" points="32.903,0.58 33.316,3.943 33.794,3.943 33.368,0.58 		"/>
		<polygon class="st0" points="33.849,0.58 34.288,3.943 34.766,3.943 34.314,0.58 		"/>
		<polygon class="st0" points="35.26,0.58 34.795,0.58 35.26,3.943 35.738,3.943 		"/>
	</g>
	<rect x="0.262" y="3.7" class="st0" width="35.477" height="0.486"/>
	<path id="XMLID_31_" class="st1" d="M29.155,61.148c0,0.456-5.382,0.825-12.034,0.825h1.758c-6.651,0-12.034-0.369-12.034-0.825"/>
	<path id="XMLID_30_" class="st1" d="M21.792,61.561c0-1.824-1.682-3.3-3.76-3.3l0.04,0c-2.136,0-3.864,1.476-3.864,3.3"/>
</g>
</svg>
